<svg xmlns="http://www.w3.org/2000/svg" width="200" height="200" fill="none"><circle cx="100" cy="100" r="100" fill="#00193C"/><mask id="a" width="200" height="200" x="0" y="0" maskUnits="userSpaceOnUse" style="mask-type:alpha"><circle cx="100" cy="100" r="100" fill="#E2F4FF"/></mask><g clip-path="url(#b)" mask="url(#a)"><path fill="#FF8502" d="M46.35 132.719c36.274-4.933 73.226-4.857 110.027.417a414 414 0 0 1-4.454 18.406 311.5 311.5 0 0 0-97.94-.684c-.98.15-2.026.297-2.931-.108-.768-.343-1.318-1.033-1.795-1.724-3.31-4.79-4.563-10.952-2.907-16.306z"/><path fill="#fff" d="M156.376 133.136q-.251 1.155-.509 2.308c-37.186-4.766-69.324-5.278-110.08-.188q.179-1.292.563-2.537c36.273-4.934 73.225-4.856 110.026.417" opacity=".3"/><path fill="#FF8502" d="M46.436 132.699c-1.5.579-1.96 2.464-2.033 4.071a23 23 0 0 0 3.45 13.169c.545.872 1.473 1.819 2.434 1.456.886-.334 1.04-1.506 1.011-2.453a37.4 37.4 0 0 0-3.584-14.873c-.206-.433-.433-.879-.819-1.164s-.976-.352-.46-.207z"/><path fill="#E36A00" d="M50.233 140.039c-.237.244-.516.511-.817.785.178 2.476.227 5.026-.451 5.243-.94.302-2.126-1.388-2.899-2.756a3 3 0 0 1-.167.074c.688 2.245 1.572 4.991 2.524 6.896.299.596.753 1.264 1.34 1.157.547-.099.818-.814.969-1.434.594-2.452.249-6.505-.5-9.966z"/><path fill="#FF8502" d="M156.206 132.654c-4.527 4.571-6.356 11.637-4.616 17.83.142.506.398 1.089.918 1.17.554.087.984-.459 1.265-.944a33 33 0 0 0 4.157-12.215c.154-1.179.241-2.402-.112-3.538-.352-1.136-1.233-2.176-1.612-2.303"/><path fill="#E36A00" d="M156.305 143.047c-.772 1.367-1.959 3.057-2.899 2.755-.677-.218-.627-2.766-.45-5.242a18 18 0 0 1-.817-.786c-.748 3.461-1.093 7.515-.499 9.966.15.62.421 1.335.969 1.435.587.105 1.041-.562 1.339-1.158.953-1.905 1.836-4.651 2.525-6.895a4 4 0 0 1-.168-.074z"/><path fill="#FF8502" d="M58.134 141.699c1.75 11.122.776 22.663-2.9 33.522a10.68 10.68 0 0 0 5.169 4.976c1.406.628 3.114 1.092 3.749 2.496.315.697-1.538 15.381-1.572 16.146-.404 9.065-.023 8.37.983 14.008 21.786 9.353 41.046 9.68 61.162 5.623 3.845-.775 9.754-1.566 12.702-4.154 5.724-14.593 1.255-21.763 3.647-29.7.626-2.078 2.564-4.59 2.812-6.746.281-2.433-.345-4.865-.849-7.262a73.9 73.9 0 0 1-.22-29.164c-12.081-3.577-24.735-4.672-37.288-5.748-10.34-.887-20.737-1.774-31.077-.91-6.242.522-13.027 2.028-16.319 6.913"/><path fill="#FF8502" d="M62.72 212.389c-3.345.425-6.803.505-10.024-.492s-6.191-3.205-7.473-6.323c-.78-1.898-.899-3.997-.906-6.049a62.5 62.5 0 0 1 2.679-18.309c.369-1.219.799-2.467 1.667-3.399 1.479-1.588 3.842-1.892 6.002-2.1a37.9 37.9 0 0 0 10.5 7.322c-1.778 8.392-3.566 16.946-2.718 25.483.13 1.302.32 2.597.505 3.893-.263-.057-.527-.113-.233-.026z"/><path fill="#E36A00" d="M62.953 212.415c-.185-1.295-.376-2.591-.505-3.894-.849-8.536.938-17.089 2.716-25.481a39 39 0 0 1-1.583-.79c-.9 5.093-2.396 10.061-5.07 14.456-2.868 4.712-7.308 8.683-12.46 10.43 1.508 2.296 3.992 3.939 6.645 4.762 3.22.996 6.68.916 10.024.491-.294-.087-.03-.031.233.026"/><path fill="#FF8502" d="M141.196 184.536c1.842-2.294 2.476-2.952 4.095-5.193 3.134-.511 6.738-.36 7.942.537 2.726 2.032 3.266 13.727 3.504 16.648.366 4.493 1.267 14.273-9.561 17.13-3.102.818-6.366.762-9.564.515 1.979-9.958 3.584-18.372 3.584-29.637"/><path fill="#E36A00" d="M152.953 211.574c-4.049-2.851-7.102-7.25-8.759-11.977-1.702-4.855-2.133-10.026-1.954-15.195q-.85.242-1.712.444c-.006 7.104-.029 14.318-1.517 21.23-.832 4.26-1.817 6.291-2.429 7.962.269 0 .538-.001.233.024 9.608 1.704 12.276.238 16.138-2.488"/><path fill="#3A3A3A" d="M141.614 215.491c-1.299 0-2.713-.061-4.268-.183l-1.5-.117.605-1.378c1.873-4.264 3.086-18.418 3.555-29.243l.036-.834.817-.167c.211-.043.501-.051 1.473-.073 1.495-.034 3.995-.091 6.305-.375 3.601-.443 4.422-1.168 4.589-1.38.056-.072.062-.106.052-.163l-.013-.055c-.468-1.808-5.787-1.469-8.974-1.266l-.959.061-.162-.947c-.05-.29-.138-.763-.249-1.36-1.67-9.021-3.683-21.387-2.526-27.454-2.969-.464-12.578-1.633-26.252-2.175-13.648-.54-34.034-.516-54.141 2.618-.04 11.069-.82 13.705-2.338 18.824-.505 1.704-1.077 3.636-1.734 6.268l-.164.655-.663.134c-5.538 1.114-5.972 2.288-5.988 2.337-.018.059.07.207.214.361.895.951 3.457 1.927 6.527 2.487 3.321.605 6.646.626 8.896.056.364-.092.744.007 1.016.265.476.45.376 1.042.25 1.791a94 94 0 0 1-.398 2.112c-1.053 5.396-3.52 18.033-1.544 25.912l.284 1.134-1.154.182c-7.63 1.207-13.177-.126-16.484-3.961-6.872-7.97-1.77-24.213-.094-29.55.196-.626.366-1.167.41-1.368l.019.005q.01-.04.022-.075c.317-.996 1.392-2.44 6.94-3.646.6-2.349 1.127-4.124 1.596-5.707 1.499-5.059 2.251-7.598 2.251-19.13v-.91l.9-.145c20.905-3.357 42.202-3.347 56.385-2.747 8.402.355 15.043.938 19.135 1.365 2.661.277 4.46.51 5.5.657 2.258.318 2.358.403 2.598.608l.376.32.004.662-.048.154c-.505 1.633-.895 5.347.114 13.768.668 5.566 1.699 11.13 2.194 13.804l.081.443c4.299-.259 9.187-.352 10.171 2.721l.012-.003.054.238.018.076.007.031c1.792 7.896 2.583 14.114 2.416 19.002-.167 4.877-1.293 8.459-3.444 10.953-1.71 1.982-4.043 3.259-7.132 3.904-1.623.338-3.451.506-5.595.506zm-2.698-2.22a48 48 0 0 0 2.681.079c5.535 0 8.96-1.157 11.124-3.667 3.543-4.106 3.896-12.315 1.078-25.726-2.302 1.275-6.793 1.569-11.418 1.674l-.283.007c-.245 5.167-1.142 20.985-3.182 27.632zm-90.54-31.692c-.846 2.736-2.202 7.393-2.759 12.238-.752 6.548.164 11.373 2.725 14.343 2.635 3.057 7.141 4.201 13.404 3.406-1.617-8.303.656-19.953 1.776-25.687.094-.483.19-.973.27-1.398-5.095.714-12.458-.653-15.415-2.902"/><path fill="#3A3A3A" d="m141.687 185.08-1.653-1.356c1.968-2.399 3.058-4.186 3.239-4.832l2.059.577c-.461 1.645-2.906 4.71-3.645 5.611M64.576 184.132c-4.496-2.032-8.057-4.552-10.586-7.49l1.62-1.395c2.324 2.7 5.637 5.034 9.846 6.937zM49.818 152.529c-.733 0-1.723-.333-2.718-1.686-2.793-3.797-4.521-14.245-2.936-17.744.561-1.238 1.437-1.491 1.91-1.531l.065-.006.067.003c2.453.094 3.99 4.5 4.846 8.18.6 2.576.964 5.311 1 7.506.046 2.906-.45 4.539-1.56 5.139l-.176.097-.2.024a2 2 0 0 1-.297.018zm-3.583-18.773c-.23.316-.705 1.589-.488 4.776.191 2.802.859 6.018 1.745 8.393.797 2.138 1.585 3.121 2.074 3.388.181-.424.483-1.571.29-4.334-.176-2.539-.724-5.497-1.464-7.913-.935-3.052-1.812-4.077-2.157-4.31M152.199 152.528q-.157 0-.298-.018l-.2-.024-.177-.097c-1.11-.6-1.605-2.233-1.558-5.139.035-2.195.399-4.931.999-7.506.857-3.68 2.393-8.086 4.847-8.18l.066-.002.066.005c.473.041 1.349.293 1.909 1.531 1.586 3.498-.143 13.946-2.935 17.744-.994 1.353-1.984 1.686-2.718 1.686zm3.583-18.773c-.345.233-1.222 1.258-2.157 4.31-.74 2.416-1.288 5.375-1.465 7.914-.192 2.762.11 3.91.292 4.334.488-.267 1.276-1.25 2.073-3.389.886-2.375 1.555-5.591 1.745-8.392.216-3.187-.259-4.461-.488-4.776z"/><path fill="#3A3A3A" d="M155.931 133.74c-15.349-2.184-34.501-3.601-52.545-3.89-15.43-.247-37.847.218-57.023 3.834l-.397-2.101c15.318-2.888 35.185-4.227 57.454-3.87 18.129.289 37.378 1.715 52.812 3.911l-.301 2.117zM50.16 152.504l-.352-2.109c35.146-5.873 71.52-5.872 102.424.004l-.399 2.1c-30.661-5.83-66.769-5.828-101.672.005"/><path fill="#3A3A3A" d="m60.564 180.15-1.98-.806a77.3 77.3 0 0 0 5.643-30.013l2.138-.031c.153 10.477-1.853 21.144-5.801 30.85M140.619 185.818c-3.592-4.754-5.759-10.884-6.441-18.217-.597-6.42 0-12.887.578-19.142l2.129.196c-.569 6.158-1.157 12.525-.578 18.747.644 6.932 2.669 12.694 6.018 17.126l-1.706 1.289z"/><path fill="#CFEEFF" d="M143.956 183.597c-.683-14.15 5.518-27.713 16.798-36.202.752-.853 2.077-.828 3.199-.644a21.18 21.18 0 0 1 11.095 5.531c1.566 1.494 2.983 3.612 2.373 5.688-.469 1.593-1.978 2.614-3.381 3.5l-13.509 8.527c-2.494 1.574-5.038 3.194-6.856 5.515-1.817 2.322-1.729 4.007-2.443 7.314-.89.361-3.523.436-7.276.772z"/><path fill="#fff" d="M152.032 181.936c-2.226.301-4.332-1.133-4.661-2.668-.373-1.741 1.29-3.306 1.51-5.08.132-1.072-.275-2.123-.417-3.191s.101-2.348 1.078-2.857c.378-.197.818-.251 1.192-.453 1.121-.609 1.17-2.213 2.069-3.11.994-.992 2.764-.776 3.849.092s2.717 2.401 7.554 1.747c-10.221 7.234-11.164 10.218-12.174 15.52M151.339 157.77c.012.627-.446 2.588 1.614 2.252 1.379-.224 3.275-2.088 4.528-3.348.894-.898 1.93-1.567 3.418-.788.936.491 2.341 1.01 4.044 2.239-1.751-1.94-4.302-7.382-4.43-9.993-2.601 1.763-6.911 6.814-9.173 9.637z"/><path fill="#fff" d="M177.558 157.205a12 12 0 0 0-.856-.859c-3.239-2.949-7.423-4.941-11.838-5.635-1.198-.188-2.61-.213-3.413.657-9.67 6.949-15.842 17.235-17.516 28.488.476-12.77 6.537-24.722 16.819-32.461.752-.853 2.076-.828 3.198-.644a21.17 21.17 0 0 1 11.096 5.53c1.374 1.311 2.633 3.101 2.51 4.923z" opacity=".3"/><path fill="#3A3A3A" d="M144.754 184.401h-2.138c0-8.307 1.35-15.247 4.127-21.219 2.689-5.782 6.818-10.853 12.621-15.503l.159-.126c.343-.4.747-.718 1.199-.962l.024-.019.002.005c2.91-1.548 7.81-.078 11.699 2.532 2.147 1.442 3.886 3.176 4.896 4.886 1.258 2.128 1.421 4.2.471 5.992-.538 1.048-1.524 1.766-2.853 2.078-.991.232-2.18.232-3.349-.002-5.523-1.101-10.427-5.866-12.203-11.647-4.864 4.142-8.381 8.627-10.725 13.668-2.643 5.682-3.929 12.329-3.929 20.317zm23.634-25.829a12 12 0 0 0 3.641 1.396c1.534.306 3.33.127 3.885-.96l.009-.016c1.347-2.531-1.374-5.895-4.668-8.106-3.869-2.597-8.083-3.516-9.803-2.225.373.985 2.215 3.126 10.614 5.758l2.288.717-2.062 1.223a66 66 0 0 1-1.501.848c-.757.421-1.629.905-2.403 1.366zm-5.606-5.729a16 16 0 0 0 2.16 2.957q.725.785 1.528 1.442a55 55 0 0 1 2.646-1.55c-2.049-.722-3.787-1.458-5.186-2.197q-.615-.325-1.148-.652"/><path fill="#3A3A3A" d="M153.101 184.162h-2.138c0-5.21 1.67-9.255 5.256-12.73 3.212-3.111 7.674-5.526 12.841-8.323 2.021-1.094 4.112-2.226 6.298-3.488l1.069 1.851c-2.211 1.278-4.315 2.417-6.35 3.518-10.223 5.533-16.977 9.188-16.977 19.172z"/><path fill="#00A3FF" d="M78.746 140.234S68.34 153.98 54.06 172.342s-5.893 31.534 6.336 36.083c3.853 1.42 4.738 1.573 4.738 1.573l23.05-68.535-9.438-1.228z"/><path fill="#fff" d="M55.945 205.308s-13.468-11.844.016-31.07a37971 37971 0 0 0 20.26-28.908l-1.045-.428-18.843 24.51s-9 9.992-9.768 19.512 6.875 15.71 9.38 16.384" opacity=".25"/><path fill="#3A3A3A" d="m65.833 211.165-.876-.152c-.1-.017-1.088-.209-4.919-1.621-7.036-2.616-12.07-7.636-13.812-13.772-.97-3.41-.93-7.094.117-10.951 1.134-4.178 3.455-8.542 6.9-12.971a3480 3480 0 0 0 24.677-32.097l.364-.48 11.286 1.469-23.737 70.574zm13.377-69.831a3555 3555 0 0 1-24.331 31.639c-3.274 4.21-5.473 8.329-6.535 12.24-.946 3.488-.988 6.799-.123 9.84 1.56 5.494 6.13 10.011 12.537 12.394 1.878.692 3.029 1.074 3.705 1.284L86.8 142.322z"/><path fill="#00A3FF" d="M121.849 140.786s10.569 13.622 25.066 31.813 6.267 31.463-5.908 36.156c-3.835 1.465-4.718 1.629-4.718 1.629l-23.862-68.257 9.423-1.34z"/><path fill="#fff" d="M145.421 205.584s13.326-12.002-.385-31.067c-14.466-20.115-20.602-28.666-20.602-28.666l1.041-.44 19.132 24.284s9.118 9.885 9.999 19.395-6.688 15.79-9.185 16.494" opacity=".25"/><path fill="#3A3A3A" d="m135.603 211.559-24.572-70.288 11.268-1.603.37.476c.106.136 10.73 13.825 25.057 31.802 3.496 4.387 5.869 8.723 7.053 12.888 1.091 3.843 1.175 7.527.247 10.947-1.671 6.157-6.644 11.236-13.645 13.935-3.817 1.457-4.803 1.661-4.903 1.68l-.874.162zm-21.78-68.589 23.121 66.138c.675-.217 1.822-.614 3.694-1.329 6.374-2.457 10.891-7.028 12.386-12.54.829-3.052.747-6.362-.24-9.838-1.108-3.9-3.355-7.991-6.679-12.162a3535 3535 0 0 1-24.704-31.348z"/><path fill="#00A3FF" d="M100.312 229.403c-36.32 5.138-40.16-14.68-39.904-25.561.042-1.709.184-3.201.319-4.338 1.983-17.016 13.205-36.295 15.88-43.934 0 0 7.972-20.129 23.706-20.129s23.708 20.129 23.708 20.129c2.675 7.639 13.894 26.918 15.877 43.934.135 1.137.277 2.628.319 4.34.258 10.881-3.586 30.696-39.904 25.558z"/><path fill="#fff" d="M135.438 207.693c-2.335 18.821-21.279 19.551-35.126 18.297-13.845 1.253-32.79.523-35.124-18.297-2.955-23.78 19.397-53.028 16.808-61.186 1.872-2.869 18.316-2.395 18.316-2.395s16.446-.473 18.318 2.395c-2.589 8.158 19.76 37.406 16.808 61.186"/><path fill="#E9E8ED" d="M119.163 152.163c-5.381 1.652-11.869 2.618-18.851 2.618-6.983 0-13.47-.966-18.85-2.618.707-2.382.96-4.306.534-5.656 1.871-2.869 18.315-2.395 18.315-2.395s16.446-.473 18.318 2.395c-.427 1.35-.173 3.276.533 5.656z"/><path fill="#3A3A3A" d="M124.019 155.57c2.912 6.016 6.287 11.889 9.02 17.994 4.522 10.295 8.628 21.223 8.375 32.668-.419 14.119-8.682 22.786-22.568 24.672-5.711.873-13.845.408-18.388-.475-6.13.841-12.482 1.251-18.658.341a35 35 0 0 1-5.053-1.086c-.763-.187-1.733-.56-2.469-.827-7.163-2.684-12.215-8.333-14.06-15.758-2.951-12.4 1.33-25.074 6.015-36.45a182 182 0 0 1 5.786-12.134c1.503-2.855 3.207-6.037 4.587-8.943-.567 2.174-1.412 4.26-2.213 6.35-1.64 4.078-3.43 8.3-5.085 12.382-4.63 11.548-9.845 25.744-6.846 38.222 2.507 9.821 10.004 14.728 19.655 16.123 6.076.952 12.247.441 18.341-.271 8.101.945 16.51 1.324 24.287-1.418 14.761-5.159 15.987-20.477 12.863-33.79-1.802-8.025-5.044-15.901-8.194-23.5-1.865-4.661-4.021-9.256-5.395-14.099z"/><path fill="#00A3FF" d="M154.738 124.897c-4.736 9.987-16.508 20.052-44.113 22.521H89.999c-27.605-2.469-39.378-12.533-44.113-22.521-4.28-9.034-2.809-18.003-2.082-21.242-1.292-51.905 33.995-60.071 56.508-60.071 11.056 0 25.192 1.97 36.565 10.12 11.784 8.447 20.602 23.536 19.943 49.951.726 3.24 2.198 12.209-2.082 21.243z"/><path fill="#00A3FF" d="M154.739 124.897c-4.736 9.988-16.508 20.053-44.114 22.521H90c-27.606-2.468-39.378-12.533-44.114-22.521 4.212 4.041 18.637 14.588 54.426 14.588s50.215-10.547 54.427-14.588"/><path fill="#fff" d="M100.312 46.076c11.608 0 27.562 2.264 38.942 12.798-12.188-8.59-27.462-10.568-38.942-10.568S73.558 50.285 61.37 58.875c11.38-10.534 27.333-12.798 38.942-12.798" opacity=".25"/><path fill="#fff" d="M113.024 147.07s-8.405 1.894-12.712 1.894S87.6 147.07 87.6 147.07c-40.549-7.709-39.786-31.945-37.243-42.145-.758-33.776 22.855-46.644 38.027-38.41 8.612 4.827 8.204 22.436 6.095 38.513l5.833-2.572 5.833 2.572c-2.109-16.076-2.517-33.686 6.096-38.514 15.174-8.233 38.785 4.635 38.027 38.411 2.542 10.2 3.308 34.436-37.244 42.145"/><path fill="#E9E8ED" d="M144.68 131.493c-5.479 6.559-15.142 12.437-31.655 15.578 0 0-8.404 1.892-12.712 1.892s-12.712-1.892-12.712-1.892c-16.513-3.141-26.175-9.022-31.655-15.578 8.444 4.008 22.371 7.992 44.367 7.992s35.923-3.984 44.367-7.992"/><path fill="#3A3A3A" d="M89.999 147.418c-9.282.444-18.66-1.637-27.147-5.408-15.965-7.178-23.88-21.272-20.286-38.633l-.03.309c-.027-1.002-.007-3.521-.028-4.488-.021-1.006.152-3.452.166-4.492a95 95 0 0 1 1.035-8.95c.104-.552.641-3.198.74-3.692.121-.48.442-1.698.568-2.19 4.216-16.523 15.31-28.743 31.62-33.954 7.644-2.482 15.67-3.438 23.676-3.373v2.071s-.002-2.073 0-2.071c8.005-.065 16.031.89 23.675 3.372 16.974 5.454 27.968 18.175 32 35.414 1.777 7.283 2.269 14.887 2.105 22.353 1.941 8.243.628 19.114-5.426 26.922-5.281 6.983-13.265 11.284-21.445 13.921-6.644 2.13-13.639 3.308-20.596 2.888 2.984-.778 5.972-1.379 8.966-2.031 3.628-.852 7.427-1.708 10.973-2.876 7.711-2.571 15.293-6.7 20.201-13.328 5.382-7.178 6.776-16.731 4.782-25.391.019-3.95.001-7.91-.421-11.827-1.041-11.413-4.71-23.085-12.631-31.606-10.643-11.605-26.868-15.631-42.182-15.739-.003.001 0-2.072-.001-2.072v2.072c-11.596.151-23.44 2.266-33.346 8.46-13.83 8.474-20.07 23.216-21.47 38.885-.422 3.916-.446 7.876-.423 11.826-2.784 11.833 1.064 24.385 11.028 31.648 4.766 3.601 10.394 6.069 16.12 7.744 5.85 1.737 11.842 2.8 17.777 4.235z"/><path fill="#3A3A3A" d="M136.507 99.336c.009-7.333-5.13-13.284-11.479-13.291-6.349-.008-11.503 5.93-11.512 13.263-.008 7.333 5.131 13.283 11.479 13.291 6.349.008 11.503-5.93 11.512-13.263"/><path fill="#fff" d="M125.461 102.177c.003-2.621-1.672-4.748-3.742-4.75-2.07-.003-3.751 2.12-3.754 4.74s1.672 4.748 3.742 4.751c2.07.002 3.751-2.12 3.754-4.741"/><path fill="#fff" d="M132.061 94.642c.003-1.774-.925-3.213-2.072-3.214-1.146-.002-2.077 1.435-2.079 3.209s.925 3.213 2.072 3.214c1.146.002 2.077-1.435 2.079-3.209" opacity=".2"/><path fill="#3A3A3A" d="M75.64 112.591c6.35-.008 11.489-5.958 11.48-13.291s-5.163-13.271-11.512-13.263c-6.349.007-11.488 5.958-11.479 13.29.009 7.334 5.163 13.272 11.511 13.264"/><path fill="#fff" d="M78.93 106.911c2.069-.003 3.744-2.13 3.741-4.751-.003-2.62-1.684-4.743-3.754-4.74-2.07.002-3.745 2.129-3.742 4.75s1.684 4.743 3.754 4.741"/><path fill="#fff" d="M70.656 97.845c1.146-.002 2.073-1.44 2.071-3.215-.002-1.773-.933-3.21-2.08-3.209-1.146.002-2.074 1.44-2.071 3.215.002 1.773.933 3.21 2.08 3.209" opacity=".2"/><path fill="#FFA1A8" d="M140.827 117.174c3.196 0 5.786-1.588 5.786-3.546s-2.59-3.546-5.786-3.546-5.786 1.588-5.786 3.546 2.59 3.546 5.786 3.546M59.795 117.174c3.196 0 5.787-1.588 5.787-3.546s-2.591-3.546-5.787-3.546-5.786 1.588-5.786 3.546 2.59 3.546 5.786 3.546"/><path fill="#00A3FF" d="M109.248 45.675c4.115-1.701 8.634-10.589 1.249-13.401-4.283-1.098-7.338 1.728-10.242 6.028-.264.39-5.318-11.081-11.296-5.676-4.375 4.416-1.062 11.082 2.164 12.988 0 0 2.868-.879 7.646-.879s10.478.939 10.478.939z"/><path fill="#3A3A3A" d="M109.248 45.674c2.426-2.126 5.321-7.217 3.549-10.23-.546-.951-1.54-1.644-2.718-2.074l.127.04c-.743-.172-1.48-.242-2.195-.145a5.7 5.7 0 0 0-2.064.724c-1.868 1.054-3.444 3.078-4.725 4.91-.061.12-.373.443-.67.503-.758.204-1.259-.321-1.579-.867-1.748-2.779-4.912-8.116-8.651-5.658-2.692 1.842-2.743 5.437-1.804 8.36.545 1.614 1.364 3.137 2.606 4.377-3.543-1.305-5.964-5.694-5.248-9.407.636-3.021 3.043-5.975 6.337-6.088 4.218.095 6.76 4.352 8.787 7.374-.258-.259-.62-.386-1.065-.274a1.1 1.1 0 0 0-.474.274c-.157.168-.161.205-.142.17.016-.02.056-.086.072-.107 1.986-2.95 4.529-6.128 8.313-6.64a8.1 8.1 0 0 1 3.161.24c2.421.855 4.495 2.993 4.629 5.665.283 3.764-2.398 8.23-6.245 8.853z"/><path fill="#FC8230" d="M109.109 106.909c-1.531 4.096-2.099 11.3-8.797 11.3s-7.267-7.204-8.797-11.3h17.595z"/><path fill="#3A3A3A" d="M100.312 118.985c-6.043 0-7.607-5.396-8.748-9.335-.26-.895-.504-1.739-.776-2.469a.776.776 0 0 1 .727-1.049h17.595a.775.775 0 0 1 .727 1.049c-.273.73-.517 1.574-.776 2.469-1.141 3.94-2.705 9.336-8.749 9.336zM92.6 107.686a69 69 0 0 1 .456 1.532c1.17 4.038 2.38 8.214 7.257 8.214s6.086-4.176 7.256-8.214c.154-.53.302-1.043.457-1.532z"/><path fill="#3A3A3A" d="M100.312 116.321c-3.533 0-5.17-2.696-6.51-7.319l-.157-.538h13.334l-.157.539c-1.339 4.623-2.976 7.319-6.51 7.319z"/><path fill="#FF7B7B" d="M100.313 112.041c3.56-2.065 3.123 2.502 0 2.502s-3.56-4.567 0-2.502"/><path fill="#FCB137" d="M100.313 102.013c3.068 0 5.575 2.211 5.575 2.211 3.455.096 4.036 1.924 3.439 3.22-1.108 2.406-7.174 2.532-9.014 2.532s-7.906-.126-9.014-2.532c-.597-1.296-.016-3.124 3.439-3.22 0 0 2.507-2.211 5.575-2.211"/><path fill="#fff" d="M100.314 102.014c3.071 0 5.577 2.211 5.577 2.211 3.102.086 3.886 1.57 3.581 2.81-.668-1.395-1.791-1.774-4.1-1.838 0 0-2.629-2.212-5.059-2.212-2.429 0-5.058 2.212-5.058 2.212-2.31.065-3.43.443-4.1 1.838-.305-1.24.48-2.724 3.581-2.81 0 0 2.506-2.211 5.577-2.211z" opacity=".3"/><path fill="#FC8230" d="M109.327 107.444c-1.108 2.406-7.174 2.533-9.013 2.533s-7.907-.127-9.015-2.533c-.32-.691-.3-1.533.31-2.182-.01.31.062.621.192.904 1.046 2.273 6.773 2.393 8.513 2.393 1.739 0 7.464-.119 8.51-2.393a2 2 0 0 0 .192-.904c.611.65.629 1.491.31 2.182z"/><path fill="#3A3A3A" d="M100.313 110.753c-3.808 0-8.584-.518-9.72-2.985-.407-.884-.365-1.835.116-2.61.444-.715 1.452-1.575 3.737-1.699.715-.565 3.05-2.223 5.867-2.223s5.153 1.658 5.868 2.223c2.285.125 3.293.984 3.736 1.699.482.775.524 1.727.117 2.61-1.136 2.467-5.913 2.985-9.721 2.985m0-7.963c-2.726 0-5.04 1.998-5.062 2.018a.78.78 0 0 1-.49.193c-1.394.039-2.364.386-2.732.978-.285.459-.112.95-.025 1.14.592 1.283 3.775 2.08 8.309 2.08s7.719-.797 8.309-2.08c.087-.19.261-.682-.025-1.14-.367-.592-1.337-.939-2.73-.978a.78.78 0 0 1-.493-.193c-.022-.02-2.334-2.018-5.061-2.018"/><path fill="#FF8502" d="M134.612 152.9c.043.254-15.072 14.255 4.274 45.67.337 2.748.736 7.06.107 9.846-6.277-8.114-12.508-17.291-16.672-26.666-7.549-16.996-4.423-32.232.677-34.48 2.52-1.11 10.871 1.245 11.614 5.631z"/><path fill="#fff" d="M122.321 181.749q.041.095.084.188c-6.173-16.174-2.403-29.787 3.372-31.988 1.504-.574 4.652-.302 7.652.65-2.564-2.865-8.398-4.227-10.431-3.33-5.1 2.249-8.225 17.484-.676 34.48z" opacity=".3"/><path fill="#3A3A3A" d="m139.535 210.863-1.388-1.793c-7.681-9.93-13.177-18.724-16.803-26.886-2.551-5.744-4.107-11.81-4.5-17.544-.342-4.985.207-9.638 1.545-13.101 1.038-2.686 2.482-4.5 4.178-5.247 1.893-.834 5.779-.194 8.847 1.459 2.455 1.322 3.925 3.042 4.252 4.972.085.504-.164.802-.428 1.118-3.331 3.985-4.51 8.7-4.912 11.955-.508 4.109-.149 8.608 1.066 13.369 1.502 5.887 4.33 12.227 8.405 18.845l.122.199.028.231c.567 4.629.596 7.97.088 10.212zm-14.86-62.798c-.591 0-1.009.079-1.246.183-1.148.506-2.23 1.948-3.046 4.061-2.139 5.536-2.659 16.455 2.916 29.006 3.299 7.428 8.196 15.414 14.94 24.353.067-1.779-.062-4.032-.385-6.739-4.123-6.729-6.993-13.2-8.534-19.236-1.281-5.021-1.657-9.785-1.116-14.16.431-3.492 1.693-8.54 5.245-12.884-.37-1.089-1.434-2.146-3.049-3.016a14 14 0 0 0-4.117-1.415 9.6 9.6 0 0 0-1.609-.154z"/><path fill="#FF8502" d="M65.304 152.9c-.042.254 15.072 14.255-4.274 45.67-.336 2.748-.736 7.06-.106 9.846 6.277-8.114 12.508-17.291 16.672-26.666 7.549-16.996 4.422-32.232-.677-34.48-2.52-1.11-10.872 1.245-11.615 5.631z"/><path fill="#fff" d="m77.596 181.749-.084.188c6.173-16.174 2.403-29.787-3.373-31.988-1.503-.574-4.651-.302-7.651.65 2.564-2.865 8.397-4.227 10.43-3.33 5.1 2.249 8.226 17.484.677 34.48" opacity=".3"/><path fill="#3A3A3A" d="m60.382 210.863-.501-2.211c-.508-2.243-.478-5.583.088-10.212l.028-.231.123-.199c4.075-6.618 6.903-12.958 8.405-18.845 1.215-4.761 1.573-9.26 1.065-13.369-.402-3.254-1.58-7.97-4.912-11.955-.264-.316-.513-.615-.428-1.118.327-1.93 1.797-3.65 4.252-4.972 3.069-1.653 6.955-2.293 8.847-1.459 1.696.747 3.141 2.561 4.178 5.247 1.338 3.463 1.887 8.116 1.545 13.101-.393 5.734-1.95 11.801-4.5 17.544-3.625 8.161-9.121 16.956-16.803 26.886zm1.681-11.933c-.323 2.706-.452 4.96-.386 6.739 6.744-8.939 11.642-16.925 14.941-24.353 5.575-12.552 5.055-23.47 2.916-29.007-.817-2.112-1.898-3.555-3.046-4.061-.986-.434-4.193-.111-6.971 1.386-1.615.87-2.679 1.926-3.049 3.016 3.551 4.344 4.813 9.393 5.245 12.884.54 4.375.165 9.139-1.116 14.16-1.54 6.036-4.411 12.508-8.533 19.237zm4.295-45.852v.002z"/><path fill="#FF8502" d="M37.544 77.846s-9.596 23.958-4.059 33.6c5.632 7.248 17.518 7.164 20.808 1.853 4.173-4.822-.317-21.463 4.483-33.581 3.505-8.85 14.142-17.943 40.382-17.943 18.816 0 28.175 2.658 36.514 9.077 11.361 8.745 8.753 32.361 9.097 37.562s7.392 11.252 16.418 6.859 8.249-10.892 7.302-14.741c-.946-3.85-4.039-20.564-4.411-22.759-.37-2.194 2.995-15.949-5.993-30.12-8.988-14.17-26.022-19.288-51.935-20.768s-52.191 4.482-62.593 18.44-6.013 32.52-6.013 32.52"/><path fill="#E36A00" d="M63.622 68.024c-4.721-.674-4.918-1.475-12.68 2.685-4.381 2.346-9.87 5.818-13.877 8.397-.394 1.063-.991 2.74-1.645 4.802 2.846.46 6.225.703 7.587.004 2.933-1.503 6.78-4.264 8.55-3.521 1.77.741 1.78 3.584 1.004 9.187-.776 5.604-.935 15.9-8.15 18.034-5.586 1.655-9.843-1.557-12.479-7.808-.413 4.485-.125 8.719 1.553 11.64 5.63 7.25 17.517 7.164 20.807 1.855 4.172-4.823-.317-21.464 4.482-33.582 1.531-3.864 4.422-7.777 9.381-10.958-1.112-.2-1.874-.353-4.534-.735zM168.867 99.805c-2.636 6.252-6.892 9.463-12.479 7.809-7.214-2.135-7.373-12.431-8.149-18.035-.776-5.602-.767-8.446 1.003-9.187 1.77-.743 5.618 2.018 8.55 3.522 1.363.697 4.742.455 7.587-.005a108 108 0 0 0-1.644-4.802c-4.007-2.58-9.496-6.05-13.877-8.397-7.762-4.16-7.959-3.36-12.681-2.684-2.661.38-3.422.535-4.534.734 4.959 3.182 7.851 7.094 9.381 10.958 4.8 12.118.31 28.759 4.482 33.582 3.29 5.309 15.177 5.396 20.807-1.854 1.678-2.921 1.966-7.156 1.553-11.641z" opacity=".6"/><path fill="#fff" d="M156.646 45.557c-8.987-12.518-24.583-17.39-50.496-18.698s-50.854 4.004-61.255 16.333c-6.52 7.73-8.567 17.011-8.187 22.896.251-5.588 1.796-12.604 6.893-18.644 10.402-12.328 36.68-17.596 62.593-16.29 25.913 1.309 42.946 5.83 51.934 18.347 4.501 6.27 5.905 12.448 6.229 17.296.219-5.104-1.733-12.914-7.711-21.24" opacity=".3"/><path fill="#3A3A3A" d="M45.664 118.219c-4.173 0-9.557-1.582-13.06-6.089l-.047-.062-.038-.067c-5.45-9.488 2.683-31.215 3.864-34.248-.253-1.216-1.023-5.433-.848-10.969.12-3.798.666-7.43 1.621-10.793 1.2-4.227 3.053-8.039 5.507-11.332 5.061-6.791 14.079-12.123 26.078-15.418 11.063-3.038 24.021-4.237 37.473-3.47 14.057.803 24.43 2.613 32.642 5.695 9.08 3.409 15.678 8.508 20.17 15.59 7.499 11.825 6.619 23.453 6.243 28.419-.068.902-.139 1.835-.092 2.113.368 2.176 3.46 18.875 4.395 22.677.468 1.906.986 4.785.072 7.761-1.048 3.41-3.729 6.185-7.969 8.249-6.031 2.935-10.563 1.265-12.727.008-3.017-1.752-5.094-4.812-5.291-7.797-.059-.887-.037-2.227-.009-3.922.137-8.388.423-25.84-8.655-32.83-4.289-3.3-8.583-5.382-13.925-6.749-5.591-1.43-12.553-2.096-21.909-2.096-11.793 0-21.279 1.858-28.195 5.522-5.468 2.898-9.22 6.839-11.151 11.715-2.406 6.075-2.402 13.353-2.398 19.776.003 6.361.007 11.398-2.22 14.056-1.562 2.449-4.8 4.031-8.685 4.237q-.412.022-.844.022zm-11.25-7.396c3.22 4.091 8.292 5.343 11.977 5.147 3.195-.169 5.795-1.387 6.955-3.259l.047-.075.058-.067c1.74-2.012 1.738-7.187 1.734-12.665-.004-6.622-.008-14.127 2.555-20.597 2.132-5.383 6.23-9.712 12.18-12.865 7.24-3.837 17.078-5.782 29.238-5.782 9.548 0 16.685.688 22.462 2.166 5.649 1.444 10.192 3.648 14.732 7.142 9.966 7.671 9.668 25.88 9.524 34.632-.026 1.644-.048 2.943.005 3.739.149 2.265 1.793 4.626 4.186 6.015 1.781 1.034 5.53 2.398 10.632-.085 7.932-3.86 7.752-9.227 6.708-13.472-.946-3.844-4.058-20.651-4.428-22.84-.092-.545-.032-1.338.067-2.652.182-2.407.487-6.434-.15-11.19-.766-5.718-2.702-11.055-5.752-15.866-4.223-6.658-10.461-11.465-19.071-14.697-7.996-3.001-18.159-4.767-31.986-5.556-13.212-.755-25.922.418-36.755 3.393-11.515 3.162-20.119 8.21-24.881 14.6-5.2 6.978-6.506 15.197-6.687 20.863-.196 6.166.855 10.69.865 10.734l.081.343-.131.328c-.024.06-2.396 6.017-4.063 13.054-2.148 9.064-2.183 15.807-.103 19.509z"/><path fill="#FF6D3E" d="M97.934 43.993a11.6 11.6 0 0 1 4.776-.403c.072.045.146.089.197.047a36.8 36.8 0 0 0 .305 11.32l-5.837-.157c1.59-3.386 1.904-7.353.559-10.807"/><path fill="#F54E22" d="M102.651 50.116a7.2 7.2 0 0 1-3.942-.118 14.8 14.8 0 0 1-1.334 4.8l5.838.159a36 36 0 0 1-.561-4.84z"/><path fill="#3A3A3A" d="M103.688 56.063q-.262-.014-.618-.047c-1.07-.09-2.863-.243-5.397.042l-.248-2.216c2.752-.309 4.757-.139 5.833-.047.219.018.407.034.546.041l-.117 2.227zM98.726 45.087l-.237-2.216c1.637-.176 3.639-.166 4.585-.116l-.117 2.226c-.842-.044-2.735-.054-4.23.106"/><path fill="#FF6D3E" d="M46.825 65.207c-.471.405-1.444 1.19-3.697 2.074-1.415.555-4.143 1.562-5.504 2.24-1.36.677-2.063.933-2.58 2.363-.518 1.43-.081 3.945 1.248 4.683-3.176 4.634.024 6.407 1.468 6.337 2.894-.14 6.324-1.907 8.802-3.407s4.337-2.88 6.535-4.768c-2.437-2.669-6.186-9.415-6.273-9.522"/><path fill="#F54E22" d="M46.825 65.208c-.297.255-.794.662-1.686 1.15.31.849.544 1.72.641 2.62.229 2.093-.424 4.413-2.147 5.62-1.444 1.01-3.32 1.07-5.023 1.53-1.033.28-2.04.74-2.899 1.378-2.153 3.937.705 5.466 2.049 5.4 2.893-.14 6.323-1.908 8.802-3.407 2.477-1.5 4.338-2.88 6.535-4.77-2.437-2.668-6.186-9.415-6.272-9.52z"/><path fill="#3A3A3A" d="M37.679 84.021c-1.143 0-2.63-.671-3.376-2.008-.572-1.025-.896-2.735.541-5.239-1.124-1.363-1.422-3.683-.85-5.268.634-1.75 1.614-2.233 2.855-2.846l.278-.137c1.12-.557 3.02-1.288 4.547-1.874.391-.15.749-.288 1.048-.406 2.182-.856 3.05-1.601 3.377-1.882l.87-.748.721.892c.068.083.079.101.345.563 2.572 4.452 4.552 7.45 5.885 8.909l.775.848-.872.75c-2.323 1.995-4.26 3.408-6.684 4.876-3.713 2.247-6.85 3.447-9.325 3.566q-.066.003-.136.004m8.812-17.173c-.673.438-1.61.944-2.955 1.472-.303.119-.666.258-1.063.41-1.404.54-3.328 1.28-4.352 1.79l-.286.141c-1.116.55-1.416.698-1.744 1.604-.386 1.067.03 2.934.741 3.329l1.07.594-.692 1.01c-1.081 1.578-1.422 2.903-.96 3.73.358.642 1.125.88 1.456.864 2.102-.102 4.886-1.194 8.278-3.247a43 43 0 0 0 5.543-3.948c-1.299-1.639-2.987-4.237-5.037-7.75"/><path fill="#3A3A3A" d="M35.787 75.639c3.277.062 6.689-.843 9.658-2.681-2.513 2.425-5.811 4.18-9.447 4.9z"/><path fill="#FF6D3E" d="M65.232 66c-4.815 4.817-8.932 8.768-11.221 8.979-2.254.207-6.441-7.258-7.318-9.588-1.096-2.909 4.958-7.215 9.101-10.442 2.522 2.522 9.439 11.052 9.439 11.052"/><path fill="#F54E22" d="M59.138 58.675a118 118 0 0 1-4.19-3.07c-1.317 1.015-2.752 2.113-4.057 3.227-.515 3.864.423 6.888 4.242 9.316 2.506 1.618.147 2.735-.63 3.02-.6.222-2.137.487-4.834-.28 1.479 2.238 3.171 4.2 4.341 4.093 2.29-.212 6.406-4.163 11.222-8.978 0 0-3.24-3.997-6.094-7.326z"/><path fill="#3A3A3A" d="M53.916 76.099c-1.416 0-3.014-1.388-5.005-4.338-1.487-2.205-2.79-4.725-3.262-5.977-1.29-3.427 3.827-7.37 8.341-10.85q.576-.442 1.118-.864l.777-.605.696.696c2.534 2.534 9.232 10.788 9.517 11.138l.632.78-.71.71c-5.29 5.29-9.24 9.054-11.907 9.3q-.097.009-.197.009m1.767-19.654-.333.256c-1.964 1.514-4.19 3.23-5.75 4.844-1.469 1.52-2.131 2.747-1.865 3.453.419 1.11 1.632 3.43 2.939 5.388 1.884 2.823 2.98 3.471 3.244 3.482 1.92-.178 6.474-4.613 9.813-7.944-1.588-1.944-5.767-7.023-8.049-9.48"/><path fill="#989899" d="M97.951 44.397a8.213 8.213 0 0 0-.299-1.205c-2.287-6.904-13.433-10.158-25.44-7.28-10.374 2.487-18.099 8.764-19.305 15.063h-.001c-3.59 17.215 13.239 19.1 25.697 16.621 11.837-2.355 22.167-10.368 19.348-23.2"/><path fill="#3A3A3A" d="M69.95 69.6c-1.341 0-2.727-.07-4.123-.234-4.804-.569-8.504-2.133-10.997-4.65-3.25-3.28-4.264-7.979-3.016-13.968l2.183.455c-1.087 5.21-.273 9.23 2.416 11.944 3.059 3.088 8.228 4.212 13.536 4.213 2.875 0 5.79-.33 8.436-.856 7.603-1.513 13.697-5.198 16.72-10.11 2.312-3.755 2.807-8.096 1.473-12.904l2.148-.596c1.507 5.43.927 10.364-1.722 14.669C93.656 63 87.028 67.057 78.82 68.69c-2.288.455-5.433.91-8.87.91"/><path fill="#3A3A3A" d="M69.974 64.746c-3.034 0-5.92-.401-8.503-1.203-5.231-1.624-8.635-4.7-9.584-8.658-.95-3.96.691-8.244 4.619-12.063 3.775-3.672 9.261-6.51 15.446-7.994 6.186-1.482 12.362-1.439 17.392.122 5.232 1.624 8.636 4.699 9.584 8.658.95 3.96-.691 8.244-4.619 12.063-3.775 3.672-9.261 6.51-15.446 7.993-3.009.722-6.015 1.081-8.89 1.082m10.87-28.772c-2.697 0-5.528.34-8.372 1.023-5.8 1.39-10.92 4.027-14.412 7.423-3.341 3.25-4.763 6.781-4.005 9.945s3.627 5.667 8.077 7.049c4.653 1.444 10.41 1.474 16.212.083 5.8-1.391 10.919-4.027 14.412-7.424 3.34-3.249 4.763-6.78 4.005-9.945s-3.627-5.667-8.078-7.048c-2.372-.737-5.032-1.106-7.838-1.106"/><path fill="#80CAE8" d="M77.54 58.137c8.4-2.014 14.257-7.627 13.08-12.536-1.176-4.91-8.94-7.257-17.341-5.243S59.02 47.985 60.198 52.895s8.94 7.256 17.342 5.242"/><path fill="#fff" d="M64.915 48.32c-.877 1.713-.554 3.11.726 4.013.177.125-.542-1.636 1.658-4.06 1.435-1.58 2.587-2.297 2.6-2.506.01-.208-3.188-.954-4.984 2.553M86.899 48.785c1.24-3.3-1.257-5.562-3.715-6.093-4.002-.867-6.611-.421-9.498 1.4 5.843 1 7.303.997 9.57 1.722 2.015.645 2.958 1.037 3.643 2.971" opacity=".7"/><path fill="#3A3A3A" d="M71.606 59.978c-2.057 0-4.014-.266-5.77-.796-3.67-1.11-6.057-3.25-6.722-6.025s.493-5.765 3.262-8.42c2.61-2.501 6.391-4.441 10.643-5.46s8.5-1.004 11.962.042c3.67 1.11 6.058 3.25 6.723 6.025s-.493 5.766-3.262 8.42c-2.611 2.501-6.391 4.441-10.643 5.46a26.7 26.7 0 0 1-6.193.754m7.608-19.227a24.5 24.5 0 0 0-5.676.694c-3.874.93-7.29 2.67-9.621 4.903-2.173 2.082-3.109 4.316-2.636 6.29.473 1.972 2.32 3.539 5.2 4.41 3.089.934 6.924.937 10.798.008s7.29-2.67 9.62-4.903c2.173-2.082 3.11-4.315 2.636-6.288-.473-1.974-2.32-3.54-5.2-4.41-1.549-.469-3.286-.703-5.12-.703z"/><path fill="#FF6D3E" d="M154.035 65.207c.471.405 1.444 1.19 3.696 2.074 1.416.555 4.144 1.562 5.505 2.24 1.36.677 2.063.933 2.58 2.363s.081 3.945-1.248 4.683c3.176 4.634-.024 6.407-1.469 6.337-2.893-.14-6.323-1.907-8.801-3.407s-4.338-2.88-6.535-4.768c2.437-2.669 6.186-9.415 6.272-9.522"/><path fill="#F54E22" d="M165.149 77.505c-.858-.636-1.866-1.098-2.899-1.377-1.702-.46-3.58-.52-5.023-1.53-1.724-1.208-2.376-3.528-2.147-5.62.098-.9.331-1.772.641-2.621a9.2 9.2 0 0 1-1.686-1.15c-.086.106-3.835 6.852-6.272 9.521 2.197 1.889 4.057 3.269 6.535 4.77 2.479 1.499 5.909 3.266 8.802 3.406 1.343.066 4.202-1.463 2.049-5.4"/><path fill="#3A3A3A" d="M163.182 84.021q-.069 0-.136-.003c-2.475-.12-5.613-1.32-9.324-3.567-2.425-1.468-4.361-2.88-6.685-4.877l-.872-.749.775-.848c1.333-1.46 3.313-4.457 5.885-8.91.267-.461.277-.48.344-.562l.722-.892.87.748c.327.28 1.195 1.026 3.377 1.882.299.118.657.255 1.048.406 1.527.586 3.427 1.317 4.547 1.874l.278.138c1.241.612 2.221 1.094 2.854 2.845.574 1.585.276 3.904-.849 5.268 1.437 2.504 1.113 4.214.542 5.239-.746 1.337-2.234 2.008-3.376 2.008m-13.849-9.424a43 43 0 0 0 5.543 3.948c3.391 2.053 6.177 3.146 8.278 3.247.331.016 1.098-.222 1.457-.865.461-.827.12-2.15-.961-3.728l-.692-1.01 1.07-.595c.712-.395 1.127-2.262.741-3.329-.327-.905-.627-1.053-1.743-1.604l-.287-.142c-1.024-.51-2.948-1.249-4.352-1.789l-1.063-.41c-1.345-.528-2.282-1.034-2.954-1.472-2.051 3.512-3.739 6.11-5.037 7.75"/><path fill="#3A3A3A" d="M164.862 77.859c-3.635-.72-6.933-2.475-9.447-4.9 2.969 1.838 6.381 2.742 9.658 2.68z"/><path fill="#FF6D3E" d="M135.629 66c4.815 4.817 8.932 8.768 11.221 8.979 2.254.207 6.441-7.258 7.318-9.588 1.096-2.909-4.958-7.215-9.101-10.442-2.522 2.522-9.439 11.052-9.439 11.052z"/><path fill="#F54E22" d="M146.358 71.167c-.777-.285-3.135-1.4-.63-3.02 3.818-2.428 4.757-5.452 4.242-9.316-1.305-1.114-2.741-2.212-4.057-3.227a117 117 0 0 1-4.19 3.07c-2.854 3.33-6.094 7.327-6.094 7.327 4.816 4.815 8.932 8.766 11.222 8.978 1.17.108 2.862-1.855 4.341-4.094-2.698.768-4.233.503-4.834.28z"/><path fill="#3A3A3A" d="M146.945 76.099q-.099 0-.197-.01c-2.667-.245-6.618-4.01-11.907-9.299l-.711-.71.633-.78c.284-.35 6.983-8.604 9.516-11.138l.697-.696.776.605q.542.422 1.118.864c4.515 3.48 9.632 7.423 8.342 10.85-.471 1.252-1.775 3.772-3.263 5.977-1.991 2.95-3.588 4.338-5.004 4.338zm-9.816-10.174c3.339 3.331 7.893 7.767 9.823 7.945.254-.012 1.35-.66 3.234-3.483 1.307-1.959 2.52-4.278 2.939-5.388.266-.706-.396-1.932-1.864-3.453-1.56-1.615-3.787-3.331-5.752-4.844l-.331-.256c-2.282 2.456-6.461 7.536-8.049 9.48z"/><path fill="#989899" d="M147.954 50.976h-.001c-1.205-6.3-8.93-12.577-19.306-15.063-12.006-2.878-23.152.376-25.439 7.28a8 8 0 0 0-.299 1.205c-2.818 12.832 7.512 20.845 19.348 23.2 12.458 2.479 29.286.593 25.697-16.622"/><path fill="#3A3A3A" d="M130.911 69.6c-3.438 0-6.582-.454-8.871-.91-8.208-1.632-14.835-5.688-18.183-11.127-2.65-4.305-3.229-9.24-1.722-14.67l2.147.597c-1.334 4.807-.838 9.149 1.473 12.904 3.024 4.912 9.118 8.597 16.72 10.11 7.531 1.498 17.257 1.403 21.972-3.357 2.69-2.715 3.503-6.734 2.417-11.944l2.182-.455c1.249 5.99.235 10.688-3.015 13.969-2.493 2.516-6.193 4.08-10.998 4.648a35 35 0 0 1-4.122.235"/><path fill="#3A3A3A" d="M130.887 64.746c-2.874 0-5.88-.36-8.889-1.08-6.185-1.483-11.671-4.322-15.446-7.994-3.928-3.82-5.568-8.103-4.619-12.063s4.353-7.034 9.584-8.658c5.03-1.56 11.207-1.604 17.392-.122s11.671 4.322 15.446 7.994c3.928 3.82 5.568 8.103 4.62 12.063-.949 3.959-4.353 7.034-9.585 8.657-2.584.802-5.469 1.204-8.503 1.204m-10.871-28.771c-2.807 0-5.466.368-7.839 1.105-4.45 1.38-7.319 3.885-8.077 7.049-.759 3.163.664 6.696 4.005 9.945 3.493 3.396 8.611 6.032 14.413 7.423 5.801 1.39 11.558 1.361 16.211-.083 4.45-1.381 7.319-3.885 8.077-7.049s-.664-6.696-4.005-9.945c-3.493-3.396-8.611-6.032-14.413-7.423-2.842-.681-5.675-1.022-8.372-1.022"/><path fill="#80CAE8" d="M140.667 52.898c1.176-4.91-4.68-10.522-13.081-12.536s-16.165.333-17.342 5.243 4.68 10.522 13.081 12.536 16.165-.333 17.342-5.243"/><path fill="#fff" d="M135.946 48.32c.876 1.713.553 3.11-.726 4.013-.177.125.542-1.637-1.658-4.06-1.435-1.58-2.588-2.298-2.599-2.506s3.187-.954 4.983 2.553M113.962 48.785c-1.241-3.3 1.256-5.562 3.714-6.093 4.002-.867 6.612-.421 9.498 1.4-5.842 1-7.303.997-9.569 1.722-2.015.645-2.959 1.037-3.644 2.971z" opacity=".7"/><path fill="#3A3A3A" d="M129.255 59.978c-2.001 0-4.097-.251-6.193-.754-4.252-1.02-8.033-2.959-10.644-5.46-2.768-2.654-3.927-5.644-3.261-8.42s3.053-4.915 6.722-6.025c3.462-1.046 7.71-1.061 11.962-.042 4.252 1.02 8.033 2.959 10.644 5.46 2.768 2.654 3.927 5.644 3.261 8.42s-3.052 4.915-6.722 6.025c-1.754.53-3.712.796-5.769.796m-7.609-19.227c-1.835 0-3.572.234-5.121.703-2.881.87-4.727 2.437-5.2 4.41s.464 4.207 2.637 6.289c2.33 2.233 5.747 3.973 9.62 4.902 3.874.929 7.709.925 10.798-.008 2.881-.87 4.727-2.437 5.2-4.41s-.463-4.207-2.636-6.29c-2.33-2.233-5.747-3.974-9.621-4.902a24.5 24.5 0 0 0-5.676-.695z"/></g><defs><clipPath id="b"><path fill="#fff" d="M30.657 25.546h147.766v216.17H30.657z"/></clipPath></defs></svg>