<svg xmlns="http://www.w3.org/2000/svg" width="80" height="80" fill="none"><circle cx="40" cy="40" r="40" fill="#64C4FF"/><mask id="a" width="80" height="80" x="0" y="0" maskUnits="userSpaceOnUse" style="mask-type:alpha"><circle cx="40" cy="40" r="40" fill="#E2F4FF"/></mask><g clip-path="url(#b)" mask="url(#a)"><path fill="#FF8502" d="M18.54 53.088a159 159 0 0 1 44.01.167 166 166 0 0 1-1.781 7.363 124.6 124.6 0 0 0-39.177-.274c-.392.06-.81.118-1.172-.043-.307-.138-.527-.413-.718-.69-1.324-1.916-1.825-4.38-1.163-6.523"/><path fill="#fff" d="M62.55 53.255q-.1.462-.204.923c-14.874-1.906-27.73-2.11-44.031-.075q.07-.516.224-1.015a159 159 0 0 1 44.01.167" opacity=".3"/><path fill="#FF8502" d="M18.574 53.08c-.6.232-.784.986-.813 1.629a9.2 9.2 0 0 0 1.38 5.267c.217.35.589.728.973.583.355-.134.416-.603.405-.982a15 15 0 0 0-1.434-5.949c-.082-.173-.173-.352-.328-.465-.154-.114-.39-.141-.183-.083"/><path fill="#E36A00" d="M20.093 56.016a7 7 0 0 1-.327.314c.071.99.09 2.01-.18 2.097-.376.12-.85-.555-1.16-1.102l-.067.03c.276.897.63 1.996 1.01 2.758.12.238.301.505.536.463.219-.04.327-.326.387-.574.238-.98.1-2.602-.2-3.986"/><path fill="#FF8502" d="M62.482 53.062c-1.81 1.828-2.542 4.655-1.846 7.132.056.202.159.436.367.468.222.035.393-.184.506-.378a13.2 13.2 0 0 0 1.663-4.886c.061-.472.096-.96-.045-1.415-.141-.454-.494-.87-.645-.921"/><path fill="#E36A00" d="M62.522 57.22c-.31.546-.784 1.222-1.16 1.101-.27-.087-.251-1.106-.18-2.097a7 7 0 0 1-.327-.314c-.3 1.384-.437 3.006-.2 3.987.06.247.169.533.388.573.235.043.416-.224.536-.463.38-.762.734-1.86 1.01-2.758z"/><path fill="#FF8502" d="M23.253 56.68c.7 4.45.31 9.065-1.16 13.409a4.27 4.27 0 0 0 2.067 1.99c.563.251 1.246.437 1.5.999.126.279-.615 6.152-.628 6.458-.162 3.626-.01 3.348.393 5.603 8.714 3.741 16.418 3.872 24.465 2.25 1.538-.31 3.901-.627 5.08-1.662 2.29-5.837.502-8.705 1.46-11.88.25-.831 1.025-1.836 1.124-2.698.112-.974-.138-1.947-.34-2.905a29.6 29.6 0 0 1-.088-11.666c-4.832-1.43-9.894-1.869-14.915-2.3-4.136-.354-8.295-.709-12.43-.363-2.497.209-5.212.811-6.528 2.765"/><path fill="#FF8502" d="M25.088 84.956c-1.338.17-2.722.202-4.01-.197s-2.477-1.282-2.99-2.529c-.311-.76-.359-1.599-.362-2.42a25 25 0 0 1 1.072-7.323c.148-.488.32-.987.667-1.36.591-.635 1.537-.757 2.4-.84a15.2 15.2 0 0 0 4.2 2.93c-.71 3.356-1.426 6.778-1.087 10.192.052.521.129 1.04.202 1.557-.105-.022-.21-.045-.093-.01"/><path fill="#E36A00" d="M25.18 84.966c-.073-.518-.15-1.036-.201-1.557-.34-3.415.375-6.836 1.086-10.193q-.32-.15-.633-.316c-.36 2.037-.958 4.025-2.028 5.783-1.147 1.885-2.923 3.473-4.984 4.172.603.918 1.597 1.576 2.658 1.904 1.288.4 2.672.367 4.01.197-.118-.035-.012-.012.093.01"/><path fill="#FF8502" d="M56.478 73.815c.737-.918.99-1.181 1.638-2.077 1.254-.205 2.695-.144 3.177.214 1.09.813 1.306 5.491 1.401 6.66.147 1.797.507 5.709-3.824 6.851-1.241.328-2.546.306-3.826.207.792-3.984 1.434-7.35 1.434-11.855"/><path fill="#E36A00" d="M61.18 84.63c-1.619-1.14-2.84-2.9-3.503-4.791-.68-1.942-.853-4.01-.781-6.078q-.341.097-.685.178c-.003 2.841-.012 5.727-.607 8.492-.333 1.704-.727 2.516-.972 3.185.108 0 .215 0 .093.009 3.844.682 4.91.096 6.456-.995"/><path fill="#3A3A3A" d="M56.645 86.197c-.52 0-1.085-.025-1.707-.074l-.6-.047.242-.55c.749-1.706 1.234-7.368 1.422-11.698l.014-.333.327-.067c.085-.017.2-.02.59-.03.597-.013 1.597-.036 2.521-.15 1.44-.177 1.77-.467 1.836-.551.022-.03.025-.043.02-.066l-.004-.022c-.188-.723-2.315-.587-3.59-.506l-.384.024-.065-.378c-.02-.117-.055-.305-.099-.544-.668-3.609-1.473-8.555-1.01-10.982-1.188-.185-5.032-.653-10.501-.87-5.46-.216-13.614-.206-21.657 1.047-.016 4.428-.328 5.482-.935 7.53-.202.682-.43 1.454-.694 2.507l-.065.262-.265.053c-2.216.446-2.389.916-2.395.936-.008.023.027.082.085.144.358.38 1.383.77 2.611.994 1.328.243 2.659.251 3.559.023a.43.43 0 0 1 .406.106c.19.18.15.417.1.716q-.054.31-.16.845c-.42 2.159-1.407 7.213-.617 10.365l.113.454-.461.073c-3.052.482-5.271-.05-6.594-1.585-2.748-3.188-.708-9.685-.037-11.82.078-.25.146-.467.164-.547l.007.002.009-.03c.127-.399.557-.976 2.777-1.459.24-.94.45-1.65.637-2.282.6-2.024.9-3.04.9-7.652v-.365l.36-.057c8.363-1.343 16.882-1.339 22.555-1.1 3.36.143 6.017.376 7.654.547a63 63 0 0 1 2.2.262c.903.128.943.162 1.04.244l.15.128.001.265-.019.061c-.202.653-.358 2.139.046 5.507.267 2.227.679 4.453.877 5.522l.033.177c1.72-.103 3.674-.14 4.068 1.089l.005-.001.021.094.008.031.002.012c.717 3.159 1.034 5.646.967 7.601-.067 1.951-.518 3.384-1.378 4.381-.684.793-1.617 1.304-2.853 1.562-.649.135-1.38.202-2.238.202zm-1.079-.889q.567.032 1.072.032c2.214 0 3.584-.463 4.45-1.466 1.417-1.643 1.558-4.927.431-10.291-.92.51-2.717.628-4.567.67l-.113.002c-.098 2.067-.457 8.395-1.273 11.053M19.35 72.633c-.339 1.094-.88 2.957-1.104 4.895-.3 2.62.066 4.55 1.09 5.737 1.055 1.223 2.857 1.68 5.362 1.363-.647-3.321.262-7.982.71-10.275l.108-.56c-2.038.286-4.983-.26-6.166-1.16"/><path fill="#3A3A3A" d="m56.674 74.033-.66-.543c.786-.96 1.222-1.674 1.295-1.933l.823.231c-.184.658-1.162 1.884-1.458 2.245M25.83 73.653c-1.799-.813-3.223-1.82-4.235-2.996l.648-.558c.93 1.08 2.255 2.014 3.939 2.775zM19.927 61.012c-.294 0-.69-.133-1.088-.674-1.117-1.52-1.808-5.698-1.174-7.098.224-.495.575-.596.764-.612l.026-.002h.027c.98.038 1.596 1.8 1.938 3.273.24 1.03.386 2.124.4 3.002.018 1.162-.18 1.816-.623 2.056l-.071.038-.08.01a1 1 0 0 1-.12.007m-1.434-7.51c-.092.127-.282.637-.195 1.911.077 1.121.344 2.407.698 3.357.319.856.634 1.249.83 1.356.072-.17.193-.629.116-1.734a15 15 0 0 0-.586-3.165c-.374-1.22-.725-1.631-.863-1.724M60.879 61.012q-.063 0-.12-.007l-.08-.01-.07-.038c-.444-.24-.642-.894-.623-2.056.014-.878.16-1.972.4-3.003.342-1.472.957-3.234 1.938-3.271l.026-.002.027.003c.189.016.54.117.764.612.634 1.4-.057 5.578-1.174 7.098-.398.54-.794.674-1.088.674m1.433-7.509c-.138.093-.489.503-.863 1.724a15 15 0 0 0-.585 3.166c-.078 1.104.043 1.564.116 1.733.195-.107.51-.5.83-1.356.354-.95.621-2.236.697-3.356.087-1.275-.103-1.785-.195-1.91z"/><path fill="#3A3A3A" d="M62.372 53.497c-6.14-.874-13.8-1.441-21.018-1.556-6.172-.1-15.139.087-22.81 1.533l-.158-.84c6.127-1.156 14.074-1.691 22.982-1.548 7.251.115 14.95.686 21.124 1.564zM20.064 61.002l-.141-.844c14.058-2.349 28.608-2.348 40.97.002l-.16.84c-12.264-2.332-26.708-2.331-40.67.002"/><path fill="#3A3A3A" d="m24.225 72.06-.792-.322a30.9 30.9 0 0 0 2.257-12.005l.855-.013a31.8 31.8 0 0 1-2.32 12.34M56.247 74.327c-1.437-1.901-2.304-4.353-2.577-7.287-.238-2.568 0-5.154.232-7.656l.851.078c-.227 2.463-.462 5.01-.231 7.5.258 2.772 1.068 5.077 2.407 6.85z"/><path fill="#CFEEFF" d="M57.582 73.439c-.274-5.66 2.207-11.085 6.719-14.48.301-.342.83-.332 1.28-.258a8.47 8.47 0 0 1 4.438 2.212c.626.597 1.193 1.445.949 2.275-.188.637-.791 1.046-1.353 1.4l-5.403 3.41c-.998.63-2.016 1.278-2.743 2.207s-.691 1.603-.977 2.925c-.356.145-1.409.175-2.91.31z"/><path fill="#fff" d="M60.812 72.775c-.89.12-1.733-.453-1.864-1.067-.15-.697.516-1.323.604-2.032.053-.429-.11-.85-.167-1.277-.056-.427.04-.939.431-1.143.152-.078.328-.1.477-.18.449-.244.468-.886.828-1.245.397-.397 1.105-.31 1.54.037.434.347 1.086.96 3.021.699-4.088 2.893-4.466 4.087-4.87 6.208M60.535 63.108c.005.251-.178 1.035.646.901.551-.09 1.31-.835 1.811-1.34.357-.358.772-.626 1.367-.314.375.196.937.404 1.618.895-.7-.776-1.721-2.953-1.772-3.997-1.04.705-2.765 2.726-3.67 3.855"/><path fill="#fff" d="M71.023 62.882a5 5 0 0 0-.343-.343 9.2 9.2 0 0 0-4.735-2.254c-.479-.076-1.044-.086-1.365.262-3.868 2.78-6.337 6.894-7.006 11.395.19-5.107 2.615-9.888 6.727-12.984.301-.341.83-.331 1.28-.257a8.47 8.47 0 0 1 4.438 2.212c.55.524 1.053 1.24 1.004 1.969" opacity=".3"/><path fill="#3A3A3A" d="M57.901 73.76h-.855c0-3.322.54-6.098 1.65-8.487 1.077-2.313 2.728-4.341 5.05-6.201l.063-.05q.207-.24.48-.385l.01-.008v.002c1.164-.62 3.124-.031 4.68 1.013.858.577 1.554 1.27 1.958 1.954.503.852.568 1.68.188 2.397-.215.42-.61.706-1.141.831a3.2 3.2 0 0 1-1.34 0c-2.209-.44-4.17-2.347-4.88-4.66-1.947 1.658-3.353 3.452-4.291 5.468-1.057 2.273-1.571 4.931-1.571 8.127m9.454-10.33c.467.268.96.458 1.456.557.614.123 1.332.051 1.554-.384l.004-.006c.538-1.012-.55-2.358-1.867-3.242-1.548-1.04-3.234-1.407-3.922-.89.15.394.886 1.25 4.246 2.303l.915.287-.825.489c-.153.091-.36.206-.6.34-.303.167-.652.361-.961.545m-2.243-2.292c.24.422.531.82.865 1.182q.29.314.61.577c.314-.2.702-.42 1.059-.62a16 16 0 0 1-2.074-.879 8 8 0 0 1-.46-.26"/><path fill="#3A3A3A" d="M61.24 73.665h-.855c0-2.084.668-3.702 2.102-5.092 1.285-1.244 3.07-2.21 5.137-3.329.808-.438 1.645-.89 2.519-1.395l.428.74c-.885.511-1.727.967-2.54 1.407-4.09 2.214-6.791 3.675-6.791 7.669"/><path fill="#00A3FF" d="M31.499 56.094s-4.163 5.499-9.875 12.843-2.357 12.614 2.535 14.434c1.54.567 1.895.629 1.895.629l9.22-27.414z"/><path fill="#fff" d="M22.378 82.124s-5.387-4.738.006-12.428c5.691-8.114 8.105-11.564 8.105-11.564l-.419-.17-7.537 9.803s-3.6 3.997-3.907 7.805 2.75 6.284 3.752 6.554" opacity=".25"/><path fill="#3A3A3A" d="m26.333 84.466-.35-.06c-.04-.007-.436-.084-1.968-.649-2.814-1.046-4.828-3.054-5.525-5.509-.387-1.363-.371-2.837.047-4.38.454-1.671 1.382-3.417 2.76-5.188 5.645-7.259 9.83-12.784 9.87-12.84l.146-.191 4.515.587zm5.35-27.932c-.786 1.037-4.673 6.151-9.731 12.656-1.31 1.684-2.19 3.331-2.614 4.896-.379 1.395-.396 2.72-.05 3.936.625 2.197 2.453 4.004 5.015 4.957.751.277 1.212.43 1.482.514L34.72 56.93l-3.036-.396"/><path fill="#00A3FF" d="M48.74 56.315s4.227 5.45 10.026 12.726c5.8 7.276 2.507 12.585-2.363 14.462-1.534.586-1.887.651-1.887.651L44.97 56.852z"/><path fill="#fff" d="M58.169 82.235s5.33-4.801-.154-12.427c-5.787-8.046-8.241-11.467-8.241-11.467l.416-.175 7.653 9.713s3.647 3.954 4 7.758c.352 3.804-2.675 6.316-3.674 6.598" opacity=".25"/><path fill="#3A3A3A" d="M54.241 84.624 44.413 56.51l4.507-.64.148.19c.042.054 4.292 5.53 10.023 12.72 1.398 1.755 2.347 3.49 2.82 5.155.437 1.538.47 3.011.1 4.38-.669 2.462-2.658 4.494-5.458 5.573-1.527.583-1.922.665-1.961.672zM45.53 57.19l9.249 26.455c.27-.087.729-.245 1.477-.531 2.55-.983 4.357-2.812 4.955-5.017.331-1.22.299-2.544-.096-3.935-.444-1.56-1.342-3.196-2.672-4.864a1423 1423 0 0 1-9.882-12.54z"/><path fill="#00A3FF" d="M40.125 91.762C25.596 93.817 24.06 85.89 24.163 81.537c.017-.683.074-1.28.128-1.735.793-6.806 5.282-14.518 6.351-17.573 0 0 3.19-8.052 9.483-8.052s9.484 8.052 9.484 8.052c1.07 3.055 5.557 10.767 6.35 17.573.054.455.111 1.051.128 1.736.103 4.353-1.435 12.279-15.962 10.224"/><path fill="#fff" d="M54.175 83.078c-.934 7.528-8.511 7.82-14.05 7.319-5.538.5-13.116.209-14.05-7.32-1.181-9.511 7.76-21.21 6.724-24.473.748-1.148 7.326-.959 7.326-.959s6.578-.189 7.327.958c-1.036 3.263 7.904 14.963 6.723 24.475"/><path fill="#E9E8ED" d="M47.665 60.866c-2.152.66-4.747 1.047-7.54 1.047s-5.388-.386-7.54-1.047c.283-.953.384-1.723.213-2.263.749-1.147 7.326-.958 7.326-.958s6.579-.189 7.328.958c-.171.54-.07 1.31.213 2.263"/><path fill="#3A3A3A" d="M49.608 62.229c1.165 2.406 2.515 4.755 3.608 7.197 1.809 4.118 3.45 8.49 3.35 13.067-.168 5.648-3.473 9.115-9.027 9.869-2.285.349-5.539.163-7.356-.19-2.452.336-4.993.5-7.463.136a14 14 0 0 1-2.021-.434c-.305-.075-.693-.224-.988-.331-2.865-1.073-4.886-3.333-5.623-6.303-1.181-4.96.531-10.03 2.405-14.58a73 73 0 0 1 2.315-4.853c.601-1.142 1.282-2.415 1.835-3.578-.227.87-.566 1.704-.886 2.54-.656 1.631-1.372 3.32-2.034 4.953-1.852 4.62-3.938 10.298-2.738 15.289 1.003 3.928 4.002 5.891 7.862 6.45 2.43.38 4.899.175 7.336-.11 3.24.379 6.604.53 9.715-.567 5.905-2.063 6.395-8.19 5.145-13.516-.72-3.21-2.017-6.36-3.277-9.4-.746-1.864-1.609-3.702-2.158-5.64"/><path fill="#00A3FF" d="M61.895 49.96c-1.894 3.994-6.603 8.02-17.645 9.008H36c-11.042-.988-15.752-5.014-17.646-9.009-1.712-3.613-1.123-7.2-.832-8.497C17.005 20.7 31.12 17.434 40.125 17.434c4.422 0 10.077.788 14.626 4.048 4.713 3.379 8.24 9.414 7.977 19.98.29 1.296.88 4.884-.833 8.497"/><path fill="#00A3FF" d="M61.895 49.96c-1.894 3.994-6.603 8.02-17.645 9.008H36c-11.042-.988-15.751-5.013-17.645-9.009 1.684 1.617 7.454 5.835 21.77 5.835s20.086-4.218 21.77-5.834"/><path fill="#fff" d="M40.125 18.431c4.643 0 11.024.906 15.576 5.12-4.875-3.437-10.984-4.228-15.577-4.228-4.592 0-10.7.791-15.576 4.227 4.552-4.213 10.933-5.119 15.577-5.119" opacity=".25"/><path fill="#fff" d="M45.21 58.828s-3.362.758-5.085.758-5.085-.758-5.085-.758C18.82 55.744 19.126 46.05 20.143 41.97c-.303-13.51 9.142-18.657 15.21-15.364 3.446 1.93 3.282 8.975 2.438 15.405l2.334-1.028 2.333 1.028c-.843-6.43-1.007-13.474 2.438-15.405 6.07-3.293 15.514 1.854 15.211 15.364 1.017 4.08 1.323 13.775-14.897 16.858"/><path fill="#E9E8ED" d="M57.872 52.598c-2.191 2.623-6.057 4.974-12.662 6.23 0 0-3.362.758-5.085.758s-5.085-.757-5.085-.757c-6.605-1.257-10.47-3.61-12.662-6.231 3.378 1.603 8.95 3.197 17.747 3.197s14.37-1.594 17.747-3.197"/><path fill="#3A3A3A" d="M36 58.968c-3.713.177-7.465-.655-10.86-2.164-6.385-2.87-9.551-8.508-8.114-15.453l-.012.124c-.01-.4-.003-1.409-.01-1.795-.01-.403.06-1.381.066-1.797.08-1.193.22-2.4.414-3.58.041-.22.256-1.28.295-1.477l.228-.876c1.686-6.61 6.124-11.497 12.648-13.581 3.057-.993 6.268-1.376 9.47-1.35v.829-.829c3.202-.026 6.413.357 9.47 1.35 6.79 2.18 11.187 7.27 12.8 14.165.71 2.913.907 5.954.842 8.94.776 3.298.251 7.646-2.17 10.77-2.113 2.793-5.306 4.513-8.578 5.568-2.658.852-5.456 1.323-8.239 1.155 1.194-.311 2.39-.551 3.587-.812 1.45-.34 2.97-.683 4.389-1.15 3.084-1.029 6.117-2.68 8.08-5.332 2.153-2.871 2.71-6.692 1.913-10.156.008-1.58 0-3.164-.168-4.731-.417-4.565-1.885-9.234-5.053-12.642-4.257-4.642-10.747-6.253-16.873-6.296v-.829.83c-4.638.06-9.376.906-13.338 3.383-5.533 3.39-8.029 9.287-8.588 15.554-.17 1.567-.179 3.15-.17 4.73-1.113 4.734.426 9.754 4.412 12.66 1.906 1.44 4.158 2.427 6.447 3.097 2.34.695 4.737 1.12 7.112 1.694"/><path fill="#3A3A3A" d="M54.603 39.735c.003-2.933-2.053-5.313-4.592-5.316-2.54-.003-4.601 2.372-4.605 5.305-.003 2.933 2.053 5.313 4.592 5.316 2.54.003 4.601-2.372 4.605-5.305"/><path fill="#fff" d="M50.184 40.872c.002-1.049-.669-1.9-1.497-1.9-.828-.002-1.5.847-1.501 1.896s.669 1.899 1.497 1.9 1.5-.848 1.501-1.897"/><path fill="#fff" d="M52.824 37.858c.001-.71-.37-1.285-.828-1.286-.459 0-.832.574-.832 1.284-.001.71.37 1.285.828 1.286.459 0 .832-.575.832-1.284" opacity=".2"/><path fill="#3A3A3A" d="M30.256 45.037c2.54-.003 4.595-2.383 4.592-5.316-.004-2.934-2.065-5.309-4.605-5.306s-4.595 2.384-4.591 5.317 2.065 5.308 4.604 5.305"/><path fill="#fff" d="M31.572 42.765c.828-.001 1.498-.852 1.497-1.9-.002-1.049-.674-1.898-1.502-1.897s-1.498.852-1.497 1.9c.002 1.049.674 1.898 1.502 1.897"/><path fill="#fff" d="M28.262 39.139c.459 0 .83-.577.829-1.286 0-.71-.373-1.284-.832-1.284s-.83.576-.829 1.286.374 1.284.832 1.284" opacity=".2"/><path fill="#FFA1A8" d="M56.33 46.87c1.279 0 2.315-.635 2.315-1.418 0-.784-1.036-1.419-2.314-1.419s-2.315.635-2.315 1.419c0 .783 1.036 1.418 2.315 1.418M23.918 46.87c1.278 0 2.315-.635 2.315-1.418 0-.784-1.037-1.419-2.315-1.419s-2.314.635-2.314 1.419c0 .783 1.036 1.418 2.314 1.418"/><path fill="#00A3FF" d="M43.699 18.27c1.646-.68 3.453-4.235.5-5.36-1.714-.439-2.936.692-4.097 2.412-.106.156-2.127-4.433-4.518-2.27-1.75 1.766-.425 4.432.865 5.195 0 0 1.147-.352 3.059-.352 1.911 0 4.19.375 4.19.375"/><path fill="#3A3A3A" d="M43.699 18.27c.97-.85 2.128-2.886 1.42-4.092-.219-.38-.617-.657-1.087-.83l.05.017a2.4 2.4 0 0 0-.878-.059 2.3 2.3 0 0 0-.825.29c-.748.422-1.378 1.231-1.89 1.964a.5.5 0 0 1-.269.202c-.303.081-.503-.129-.63-.347-.7-1.112-1.966-3.247-3.462-2.263-1.076.736-1.097 2.174-.721 3.344.218.645.546 1.254 1.042 1.75-1.417-.522-2.385-2.277-2.099-3.762.254-1.21 1.217-2.39 2.535-2.436 1.687.038 2.704 1.74 3.515 2.95a.43.43 0 0 0-.426-.11.45.45 0 0 0-.19.11c-.063.067-.064.082-.057.068.007-.008.023-.034.029-.043.795-1.18 1.812-2.451 3.325-2.656.43-.056.863-.014 1.265.096.968.342 1.798 1.197 1.851 2.266.114 1.506-.959 3.292-2.498 3.541"/><path fill="#FC8230" d="M43.644 42.764c-.613 1.638-.84 4.52-3.52 4.52-2.679 0-2.906-2.882-3.518-4.52z"/><path fill="#3A3A3A" d="M40.124 47.595c-2.417 0-3.042-2.158-3.499-3.734a14 14 0 0 0-.31-.988.31.31 0 0 1 .29-.42h7.039a.31.31 0 0 1 .29.42c-.109.292-.206.63-.31.988-.457 1.576-1.082 3.734-3.5 3.734m-3.084-4.52q.09.295.182.613c.468 1.615.952 3.286 2.903 3.286 1.95 0 2.434-1.67 2.902-3.286.062-.212.12-.417.183-.613z"/><path fill="#3A3A3A" d="M40.125 46.529c-1.414 0-2.069-1.079-2.605-2.928l-.062-.215h5.333l-.062.215c-.536 1.85-1.19 2.928-2.604 2.928"/><path fill="#FF7B7B" d="M40.125 44.817c1.424-.826 1.25 1.001 0 1.001s-1.424-1.827 0-1.001"/><path fill="#FCB137" d="M40.125 40.806c1.227 0 2.23.884 2.23.884 1.382.038 1.614.77 1.376 1.288-.444.963-2.87 1.013-3.606 1.013s-3.162-.05-3.606-1.013c-.238-.518-.006-1.25 1.376-1.288 0 0 1.003-.884 2.23-.884"/><path fill="#fff" d="M40.126 40.806c1.228 0 2.23.885 2.23.885 1.241.034 1.555.627 1.432 1.124-.267-.558-.716-.71-1.64-.735 0 0-1.051-.885-2.023-.885-.971 0-2.023.885-2.023.885-.924.026-1.372.177-1.64.735-.122-.496.192-1.09 1.432-1.124 0 0 1.003-.885 2.23-.885z" opacity=".3"/><path fill="#FC8230" d="M43.73 42.978c-.443.962-2.869 1.013-3.604 1.013-.736 0-3.163-.05-3.607-1.013-.127-.277-.12-.613.124-.873a.8.8 0 0 0 .077.362c.419.909 2.71.957 3.405.957.696 0 2.986-.048 3.404-.957a.8.8 0 0 0 .077-.362c.245.26.252.597.124.873"/><path fill="#3A3A3A" d="M40.125 44.302c-1.523 0-3.434-.207-3.888-1.194a1.09 1.09 0 0 1 .047-1.044c.177-.286.58-.63 1.494-.68.286-.226 1.22-.889 2.347-.889s2.061.663 2.347.89c.914.049 1.317.393 1.495.679.192.31.21.69.046 1.044-.454.986-2.365 1.194-3.888 1.194m0-3.185c-1.09 0-2.016.799-2.025.807a.3.3 0 0 1-.196.077c-.558.016-.946.155-1.092.391-.115.184-.045.38-.01.456.236.513 1.51.832 3.323.832 1.814 0 3.087-.319 3.324-.832.035-.076.104-.273-.01-.456-.147-.236-.535-.375-1.093-.39a.3.3 0 0 1-.196-.078c-.01-.008-.934-.807-2.025-.807"/><path fill="#FF8502" d="M53.844 61.16c.017.102-6.028 5.702 1.71 18.268.135 1.1.295 2.825.043 3.939-2.511-3.246-5.003-6.916-6.67-10.666-3.019-6.8-1.768-12.893.272-13.792 1.008-.445 4.348.498 4.645 2.252"/><path fill="#fff" d="m48.928 72.7.034.075C46.492 66.305 48 60.86 50.31 59.98c.601-.23 1.86-.12 3.06.26-1.025-1.146-3.358-1.69-4.172-1.332-2.04.9-3.29 6.993-.27 13.792" opacity=".3"/><path fill="#3A3A3A" d="m55.814 84.346-.555-.718c-3.073-3.972-5.271-7.49-6.721-10.754-1.02-2.297-1.643-4.724-1.8-7.017-.137-1.995.082-3.856.617-5.241.416-1.074.993-1.8 1.672-2.099.757-.334 2.311-.077 3.538.584.983.529 1.57 1.217 1.701 1.989.034.201-.066.32-.171.447-1.332 1.594-1.804 3.48-1.965 4.782-.203 1.644-.06 3.443.426 5.347.601 2.355 1.733 4.891 3.363 7.538l.048.08.012.093c.226 1.851.238 3.187.035 4.084zm-5.944-25.12c-.237 0-.404.032-.498.073-.46.203-.892.78-1.219 1.625-.856 2.214-1.064 6.582 1.166 11.603 1.32 2.97 3.279 6.165 5.977 9.74.026-.71-.025-1.612-.155-2.695-1.649-2.692-2.797-5.28-3.413-7.695-.513-2.008-.663-3.914-.447-5.664.173-1.396.678-3.415 2.098-5.153-.148-.436-.573-.858-1.22-1.207a5.6 5.6 0 0 0-1.646-.566 4 4 0 0 0-.644-.06"/><path fill="#FF8502" d="M26.121 61.16c-.017.102 6.029 5.702-1.71 18.268-.134 1.1-.294 2.825-.042 3.939 2.51-3.246 5.003-6.916 6.669-10.666 3.02-6.8 1.769-12.893-.27-13.792-1.009-.445-4.35.498-4.647 2.252"/><path fill="#fff" d="m31.038 72.7-.034.075c2.47-6.47.962-11.915-1.349-12.795-.601-.23-1.86-.12-3.06.26 1.025-1.146 3.359-1.69 4.172-1.332 2.04.9 3.29 6.993.27 13.792" opacity=".3"/><path fill="#3A3A3A" d="m24.152 84.346-.2-.885c-.203-.897-.191-2.233.035-4.084l.012-.093.049-.08c1.63-2.647 2.76-5.183 3.362-7.538.485-1.904.63-3.703.426-5.347-.161-1.302-.633-3.188-1.965-4.782-.105-.127-.205-.246-.171-.447.13-.773.719-1.46 1.7-1.99 1.228-.66 2.782-.916 3.54-.583.678.3 1.256 1.025 1.67 2.099.536 1.385.755 3.246.618 5.24-.157 2.294-.78 4.72-1.8 7.018-1.45 3.264-3.648 6.782-6.72 10.754zm.673-4.774q-.194 1.626-.154 2.696c2.697-3.576 4.656-6.77 5.976-9.741 2.23-5.02 2.022-9.388 1.166-11.603-.326-.845-.76-1.422-1.218-1.624-.395-.174-1.677-.045-2.789.554-.645.348-1.071.77-1.22 1.206 1.422 1.738 1.926 3.757 2.099 5.154.216 1.75.066 3.656-.447 5.664-.616 2.415-1.764 5.003-3.413 7.695m1.718-18.34"/><path fill="#FF8502" d="M15.018 31.139s-3.839 9.583-1.624 13.44c2.253 2.9 7.007 2.865 8.323.741 1.67-1.929-.127-8.585 1.793-13.432 1.402-3.54 5.657-7.177 16.153-7.177 7.526 0 11.27 1.063 14.606 3.63 4.544 3.499 3.5 12.945 3.638 15.025s2.957 4.5 6.568 2.744c3.61-1.758 3.3-4.357 2.92-5.897-.378-1.54-1.615-8.225-1.764-9.103-.148-.878 1.198-6.38-2.397-12.048s-10.409-7.716-20.774-8.307-20.877 1.792-25.037 7.376c-4.161 5.583-2.405 13.008-2.405 13.008"/><path fill="#E36A00" d="M25.449 27.21c-1.889-.27-1.968-.59-5.073 1.074-1.752.938-3.947 2.327-5.55 3.359a43 43 0 0 0-.658 1.92c1.138.185 2.49.282 3.035.002 1.173-.601 2.712-1.705 3.42-1.408.708.296.711 1.433.401 3.675s-.374 6.36-3.26 7.213c-2.234.662-3.937-.623-4.991-3.123-.166 1.794-.05 3.488.62 4.656 2.253 2.9 7.008 2.866 8.324.742 1.669-1.93-.127-8.586 1.792-13.433.613-1.546 1.77-3.11 3.753-4.383-.445-.08-.75-.141-1.814-.294M67.547 39.923c-1.055 2.5-2.757 3.785-4.992 3.123-2.885-.854-2.95-4.972-3.26-7.214-.31-2.24-.306-3.378.402-3.675s2.247.808 3.42 1.409c.545.28 1.896.182 3.035-.002-.262-.825-.5-1.495-.658-1.92-1.603-1.032-3.799-2.421-5.55-3.36-3.106-1.663-3.185-1.343-5.073-1.073-1.065.152-1.37.214-1.814.294 1.984 1.272 3.14 2.837 3.753 4.383 1.92 4.847.124 11.503 1.792 13.432 1.316 2.124 6.071 2.159 8.323-.741.671-1.168.787-2.863.621-4.657" opacity=".6"/><path fill="#fff" d="M62.658 18.224c-3.595-5.008-9.833-6.957-20.198-7.48s-20.342 1.602-24.502 6.533c-2.609 3.092-3.427 6.805-3.275 9.159.1-2.235.718-5.042 2.757-7.458 4.16-4.931 14.672-7.038 25.037-6.516 10.366.524 17.179 2.332 20.774 7.34a13.17 13.17 0 0 1 2.492 6.918c.087-2.042-.694-5.166-3.085-8.496" opacity=".3"/><path fill="#3A3A3A" d="M18.266 47.288c-1.67 0-3.823-.633-5.224-2.436l-.02-.024-.015-.027c-2.18-3.795 1.074-12.486 1.546-13.7-.101-.486-.41-2.172-.339-4.387.048-1.52.266-2.972.648-4.317.48-1.69 1.221-3.216 2.203-4.533 2.024-2.717 5.632-4.85 10.431-6.167 4.426-1.215 9.609-1.695 14.99-1.388 5.622.321 9.771 1.045 13.056 2.278 3.632 1.363 6.271 3.403 8.068 6.236 3 4.73 2.648 9.381 2.498 11.367-.028.361-.056.734-.037.845.147.871 1.383 7.55 1.758 9.072.187.762.394 1.913.028 3.104-.419 1.364-1.491 2.474-3.187 3.3-2.413 1.173-4.225.505-5.091.003-1.207-.701-2.038-1.925-2.117-3.12-.023-.354-.014-.89-.003-1.568.055-3.355.17-10.336-3.462-13.132-1.716-1.32-3.433-2.153-5.57-2.7-2.236-.572-5.021-.838-8.764-.838-4.717 0-8.511.743-11.277 2.209-2.188 1.159-3.688 2.735-4.461 4.686-.962 2.43-.96 5.341-.96 7.91.002 2.544.003 4.56-.887 5.623-.625.98-1.92 1.612-3.474 1.694q-.165.01-.338.01m-4.5-2.958c1.287 1.636 3.316 2.137 4.79 2.058 1.278-.067 2.318-.554 2.782-1.303l.019-.03.023-.027c.697-.805.695-2.875.694-5.066-.002-2.649-.003-5.65 1.022-8.239.853-2.153 2.492-3.885 4.872-5.146 2.896-1.535 6.831-2.313 11.695-2.313 3.82 0 6.674.275 8.985.867 2.26.578 4.076 1.459 5.893 2.856 3.986 3.07 3.867 10.353 3.81 13.853-.011.658-.02 1.178.001 1.496.06.906.717 1.85 1.675 2.406.712.414 2.212.96 4.252-.034 3.173-1.544 3.101-3.691 2.683-5.389-.378-1.538-1.623-8.26-1.77-9.136-.037-.218-.014-.535.026-1.06.073-.963.195-2.574-.06-4.477a15.6 15.6 0 0 0-2.3-6.346c-1.69-2.663-4.185-4.586-7.629-5.879-3.198-1.2-7.264-1.907-12.794-2.222-5.285-.302-10.37.167-14.702 1.357-4.607 1.265-8.048 3.284-9.953 5.84-2.08 2.791-2.602 6.079-2.675 8.345-.078 2.467.342 4.276.346 4.294l.033.137-.053.131c-.01.024-.958 2.407-1.625 5.222-.859 3.626-.873 6.323-.04 7.804"/><path fill="#FF6D3E" d="M39.173 17.598a4.6 4.6 0 0 1 1.91-.161c.03.017.059.035.08.018a14.7 14.7 0 0 0 .121 4.529l-2.334-.064c.636-1.354.761-2.94.223-4.322"/><path fill="#F54E22" d="M41.06 20.047A2.9 2.9 0 0 1 39.483 20a5.9 5.9 0 0 1-.533 1.92l2.335.063a15 15 0 0 1-.225-1.936"/><path fill="#3A3A3A" d="M41.475 22.426a8 8 0 0 1-.247-.02c-.428-.035-1.145-.096-2.159.017l-.1-.886c1.102-.123 1.903-.055 2.334-.019q.134.012.218.017zM39.49 18.035l-.095-.886c.655-.07 1.456-.066 1.835-.047l-.047.891a12.5 12.5 0 0 0-1.693.042"/><path fill="#FF6D3E" d="M18.73 26.084c-.189.161-.578.476-1.479.83-.566.221-1.657.624-2.202.895s-.825.373-1.032.945-.032 1.578.5 1.874c-1.27 1.853.01 2.562.587 2.534 1.158-.056 2.53-.762 3.52-1.362.992-.6 1.736-1.153 2.615-1.908-.975-1.067-2.475-3.766-2.51-3.808"/><path fill="#F54E22" d="M18.73 26.084a3.7 3.7 0 0 1-.675.46c.124.339.218.687.257 1.048.091.837-.17 1.765-.859 2.248-.577.404-1.328.428-2.009.612a3.5 3.5 0 0 0-1.16.55c-.861 1.576.282 2.187.82 2.16 1.157-.055 2.529-.762 3.52-1.362s1.736-1.152 2.615-1.908c-.975-1.067-2.475-3.766-2.509-3.808"/><path fill="#3A3A3A" d="M15.071 33.609a1.62 1.62 0 0 1-1.35-.803c-.229-.41-.359-1.094.216-2.096-.45-.545-.569-1.473-.34-2.107.254-.7.646-.894 1.143-1.138l.11-.055c.448-.223 1.208-.515 1.82-.75l.419-.162c.873-.343 1.22-.64 1.35-.753l.348-.3.289.357c.027.034.031.041.138.226 1.029 1.78 1.82 2.98 2.354 3.563l.31.34-.349.3a19 19 0 0 1-2.674 1.95c-1.485.899-2.74 1.379-3.73 1.426zm3.525-6.87c-.27.176-.644.378-1.182.59l-.425.164c-.562.215-1.331.511-1.74.715l-.115.057c-.447.22-.567.28-.698.642-.154.426.012 1.173.297 1.331l.428.238-.277.404c-.433.631-.57 1.16-.385 1.491.144.258.45.352.583.346.84-.04 1.955-.477 3.311-1.299a17 17 0 0 0 2.217-1.579c-.519-.655-1.194-1.694-2.014-3.1"/><path fill="#3A3A3A" d="M14.315 30.256a7.14 7.14 0 0 0 3.863-1.072 7.6 7.6 0 0 1-3.78 1.96z"/><path fill="#FF6D3E" d="M26.092 26.401c-1.926 1.927-3.572 3.507-4.488 3.591-.902.083-2.577-2.903-2.927-3.835-.439-1.163 1.983-2.886 3.64-4.177 1.009 1.01 3.776 4.421 3.776 4.421"/><path fill="#F54E22" d="M23.655 23.47c-.575-.398-1.18-.848-1.676-1.227-.527.406-1.101.845-1.623 1.29-.206 1.546.17 2.755 1.697 3.727 1.002.647.059 1.094-.252 1.208-.24.089-.855.195-1.934-.113.592.896 1.269 1.681 1.737 1.638.915-.085 2.562-1.665 4.489-3.591 0 0-1.297-1.6-2.438-2.93z"/><path fill="#3A3A3A" d="M21.566 30.44c-.566 0-1.205-.555-2.002-1.735-.595-.882-1.116-1.89-1.305-2.391-.516-1.371 1.531-2.948 3.337-4.34q.23-.177.447-.346l.31-.242.28.279c1.013 1.013 3.692 4.315 3.806 4.455l.253.312-.284.284c-2.116 2.116-3.696 3.622-4.763 3.72zm.707-7.862-.133.103c-.786.605-1.677 1.291-2.3 1.937-.588.609-.853 1.099-.746 1.381.167.445.653 1.372 1.175 2.156.754 1.129 1.192 1.388 1.298 1.392.768-.07 2.59-1.845 3.925-3.177-.635-.777-2.307-2.81-3.22-3.792"/><path fill="#989899" d="M39.18 17.76a3.5 3.5 0 0 0-.12-.483c-.914-2.761-5.373-4.063-10.175-2.912-4.15.995-7.24 3.506-7.722 6.025h-.001c-1.436 6.886 5.296 7.64 10.279 6.65 4.735-.943 8.867-4.148 7.74-9.28"/><path fill="#3A3A3A" d="M27.98 27.84c-.537 0-1.091-.027-1.65-.093-1.921-.227-3.401-.853-4.398-1.86-1.3-1.312-1.706-3.191-1.207-5.587l.873.182c-.434 2.084-.109 3.692.967 4.778 1.223 1.235 3.29 1.685 5.414 1.685 1.15 0 2.317-.132 3.375-.343 3.04-.605 5.478-2.079 6.688-4.044.925-1.502 1.122-3.238.589-5.161l.86-.239c.602 2.172.37 4.146-.69 5.868-1.339 2.175-3.99 3.798-7.273 4.45-.916.183-2.174.364-3.549.364"/><path fill="#3A3A3A" d="M27.99 25.899c-1.214 0-2.368-.16-3.402-.481-2.092-.65-3.454-1.88-3.834-3.463s.277-3.298 1.848-4.826c1.51-1.468 3.705-2.604 6.179-3.197s4.944-.576 6.956.049c2.093.65 3.455 1.88 3.834 3.463.38 1.584-.276 3.297-1.847 4.825-1.51 1.469-3.705 2.604-6.179 3.197a15.3 15.3 0 0 1-3.556.433m4.348-11.509c-1.08 0-2.212.136-3.35.41-2.32.556-4.367 1.61-5.764 2.969-1.337 1.3-1.906 2.712-1.602 3.978.303 1.265 1.45 2.267 3.23 2.82 1.862.577 4.165.589 6.485.032s4.368-1.61 5.765-2.969c1.337-1.3 1.906-2.712 1.602-3.978s-1.45-2.267-3.23-2.82c-.95-.294-2.014-.442-3.136-.442"/><path fill="#80CAE8" d="M31.016 23.256c3.36-.806 5.702-3.051 5.232-5.015s-3.577-2.903-6.937-2.097c-3.36.805-5.703 3.05-5.232 5.014.47 1.964 3.576 2.903 6.936 2.098"/><path fill="#fff" d="M25.966 19.329c-.35.685-.222 1.243.29 1.605.07.05-.217-.655.663-1.624.574-.632 1.035-.92 1.04-1.002.005-.084-1.275-.382-1.993 1.02M34.759 19.514c.496-1.32-.503-2.224-1.486-2.437-1.6-.347-2.644-.168-3.799.56 2.337.4 2.921.4 3.828.689.806.258 1.183.415 1.457 1.188" opacity=".7"/><path fill="#3A3A3A" d="M28.642 23.991a8 8 0 0 1-2.308-.318c-1.468-.444-2.423-1.3-2.689-2.41s.197-2.306 1.305-3.368c1.044-1 2.556-1.776 4.257-2.184s3.4-.402 4.785.017c1.468.444 2.423 1.3 2.689 2.41s-.197 2.306-1.305 3.368c-1.044 1-2.556 1.776-4.257 2.184a10.7 10.7 0 0 1-2.477.301m3.043-7.69c-.73 0-1.498.092-2.27.277-1.55.372-2.916 1.068-3.849 1.962-.869.832-1.243 1.726-1.054 2.515s.928 1.416 2.08 1.764c1.236.374 2.77.375 4.319.004 1.55-.372 2.916-1.068 3.848-1.961.87-.833 1.244-1.727 1.055-2.516-.19-.79-.928-1.416-2.08-1.764a7.1 7.1 0 0 0-2.049-.281"/><path fill="#FF6D3E" d="M61.614 26.084c.188.161.577.476 1.478.83.566.221 1.658.624 2.202.895s.825.373 1.032.945.033 1.578-.499 1.874c1.27 1.853-.01 2.562-.587 2.534-1.158-.056-2.53-.762-3.52-1.362a18.3 18.3 0 0 1-2.615-1.908c.975-1.067 2.474-3.766 2.509-3.808"/><path fill="#F54E22" d="M66.06 31.003a3.5 3.5 0 0 0-1.16-.551c-.681-.184-1.432-.209-2.01-.612-.69-.483-.95-1.411-.858-2.248.039-.36.132-.709.256-1.049a3.7 3.7 0 0 1-.674-.46c-.035.043-1.534 2.741-2.509 3.809a18 18 0 0 0 2.614 1.908c.992.6 2.364 1.306 3.52 1.362.538.027 1.682-.585.82-2.16"/><path fill="#3A3A3A" d="m65.272 33.609-.054-.001c-.99-.048-2.245-.528-3.73-1.427a19 19 0 0 1-2.673-1.95l-.35-.3.31-.34c.534-.584 1.326-1.783 2.355-3.563.106-.185.11-.192.137-.226l.29-.356.347.299c.131.112.478.41 1.351.753l.42.162c.61.235 1.37.527 1.818.75l.111.055c.497.244.889.438 1.142 1.138.23.634.11 1.562-.34 2.107.575 1.002.446 1.686.217 2.096a1.62 1.62 0 0 1-1.35.803m-5.54-3.77c.752.624 1.4 1.085 2.218 1.58 1.357.82 2.47 1.258 3.311 1.298a.72.72 0 0 0 .583-.346c.185-.33.048-.86-.384-1.491l-.277-.404.428-.238c.285-.158.45-.905.297-1.331-.132-.363-.251-.422-.698-.642l-.114-.057c-.41-.204-1.18-.5-1.741-.715q-.242-.092-.425-.165a6.5 6.5 0 0 1-1.182-.588c-.82 1.405-1.496 2.443-2.015 3.1"/><path fill="#3A3A3A" d="M65.944 31.144a7.6 7.6 0 0 1-3.779-1.96 7.14 7.14 0 0 0 3.864 1.072z"/><path fill="#FF6D3E" d="M54.251 26.401c1.927 1.927 3.573 3.507 4.489 3.591.901.083 2.576-2.903 2.927-3.835.438-1.163-1.983-2.886-3.64-4.177-1.01 1.01-3.776 4.421-3.776 4.421"/><path fill="#F54E22" d="M58.543 28.467c-.31-.114-1.254-.56-.252-1.208 1.528-.971 1.903-2.18 1.697-3.726-.522-.446-1.096-.885-1.623-1.29-.497.379-1.1.828-1.676 1.227-1.141 1.332-2.437 2.93-2.437 2.93 1.926 1.927 3.572 3.507 4.488 3.592.468.043 1.145-.742 1.737-1.637-1.08.307-1.694.2-1.934.112"/><path fill="#3A3A3A" d="m58.778 30.44-.08-.004c-1.066-.098-2.646-1.604-4.762-3.72l-.284-.284.253-.312c.114-.14 2.793-3.441 3.806-4.455l.279-.278.31.242.448.346c1.806 1.391 3.852 2.968 3.336 4.34-.188.5-.71 1.508-1.305 2.39-.796 1.18-1.435 1.735-2.001 1.735m-3.927-4.07c1.336 1.333 3.157 3.107 3.93 3.178.101-.004.54-.264 1.293-1.393.523-.783 1.008-1.71 1.176-2.155.106-.282-.159-.773-.746-1.381-.624-.646-1.515-1.333-2.3-1.938l-.133-.102c-.913.982-2.584 3.014-3.22 3.792"/><path fill="#989899" d="M59.182 20.39c-.483-2.519-3.573-5.03-7.723-6.024-4.803-1.151-9.261.15-10.176 2.912a3 3 0 0 0-.12.482c-1.127 5.132 3.005 8.338 7.74 9.28 4.983.991 11.714.237 10.279-6.649"/><path fill="#3A3A3A" d="M52.364 27.84c-1.375 0-2.633-.181-3.548-.363-3.283-.653-5.934-2.276-7.273-4.451-1.06-1.722-1.292-3.696-.69-5.868l.86.239c-.534 1.923-.336 3.66.589 5.161 1.21 1.965 3.647 3.44 6.688 4.044 3.012.6 6.903.562 8.789-1.342 1.076-1.086 1.4-2.694.966-4.778l.873-.182c.5 2.396.094 4.275-1.206 5.587-.997 1.007-2.477 1.633-4.399 1.86-.558.066-1.112.094-1.649.094"/><path fill="#3A3A3A" d="M52.355 25.899c-1.15 0-2.352-.144-3.556-.433-2.474-.593-4.668-1.728-6.178-3.197-1.571-1.528-2.227-3.241-1.848-4.825.38-1.584 1.741-2.814 3.834-3.463 2.012-.625 4.482-.642 6.956-.049s4.669 1.729 6.18 3.197c1.57 1.528 2.226 3.242 1.847 4.825-.38 1.584-1.741 2.814-3.834 3.464-1.034.32-2.188.481-3.401.481M48.006 14.39c-1.123 0-2.186.148-3.135.442-1.78.553-2.928 1.554-3.231 2.82-.304 1.265.266 2.678 1.602 3.978 1.397 1.358 3.444 2.413 5.765 2.97 2.32.555 4.623.543 6.484-.034 1.78-.552 2.928-1.554 3.231-2.82s-.266-2.678-1.602-3.978c-1.397-1.358-3.444-2.413-5.765-2.969a14.5 14.5 0 0 0-3.349-.409"/><path fill="#80CAE8" d="M56.266 21.16c.471-1.964-1.872-4.209-5.232-5.015-3.36-.805-6.466.134-6.937 2.098-.47 1.963 1.872 4.208 5.233 5.014s6.466-.133 6.936-2.097"/><path fill="#fff" d="M54.378 19.329c.35.685.221 1.243-.29 1.604-.071.05.216-.654-.663-1.623-.574-.633-1.035-.92-1.04-1.003s1.275-.381 1.993 1.021M45.585 19.514c-.497-1.32.502-2.224 1.486-2.437 1.6-.347 2.644-.168 3.799.56-2.337.4-2.922.4-3.828.689-.806.258-1.184.415-1.458 1.188" opacity=".7"/><path fill="#3A3A3A" d="M51.701 23.991c-.8 0-1.638-.1-2.477-.301-1.7-.408-3.213-1.184-4.257-2.184-1.108-1.062-1.57-2.258-1.305-3.368s1.221-1.966 2.69-2.41c1.384-.418 3.083-.425 4.784-.017s3.213 1.184 4.257 2.184c1.108 1.062 1.571 2.258 1.305 3.368s-1.221 1.966-2.689 2.41a8 8 0 0 1-2.308.318m-3.043-7.69c-.734 0-1.429.093-2.048.28-1.153.349-1.891.976-2.08 1.765-.19.79.185 1.683 1.054 2.515.932.893 2.299 1.59 3.848 1.961 1.55.372 3.084.37 4.32-.003 1.152-.348 1.89-.975 2.08-1.764.189-.79-.186-1.683-1.055-2.516-.932-.893-2.299-1.59-3.848-1.96a9.8 9.8 0 0 0-2.27-.279z"/></g><defs><clipPath id="b"><path fill="#fff" d="M12.263 10.219h59.106v86.468H12.263z"/></clipPath></defs></svg>