<svg xmlns="http://www.w3.org/2000/svg" width="24" height="20" fill="none"><path fill="#fff" d="M23.951.527a.51.51 0 0 0-.349-.38 1.8 1.8 0 0 0-.944.067S1.63 7.772.43 8.609c-.26.18-.346.284-.389.408-.208.595.439.858.439.858L5.9 11.64c.09.016.185.01.274-.017 1.233-.778 12.404-7.833 13.05-8.07.101-.03.176 0 .16.075-.264.905-9.912 9.478-9.965 9.53a.2.2 0 0 0-.075.178l-.504 5.288s-.211 1.65 1.436 0a45 45 0 0 1 2.85-2.607c1.863 1.286 3.869 2.709 4.734 3.45a1.5 1.5 0 0 0 1.098.424c.825-.031 1.05-.933 1.05-.933s3.83-15.417 3.96-17.483c.012-.202.029-.332.03-.47q.01-.244-.047-.48"/></svg>